<?xml version="1.0" encoding="utf-8"?>
<!-- Generator: Adobe Illustrator 23.0.5, SVG Export Plug-In . SVG Version: 6.00 Build 0)  -->
<svg version="1.1" id="Capa_1" xmlns="http://www.w3.org/2000/svg" xmlns:xlink="http://www.w3.org/1999/xlink" x="0px" y="0px"
	 viewBox="0 0 1415.81 200.61" style="enable-background:new 0 0 1415.81 200.61;" xml:space="preserve">
<style type="text/css">
	.st0{fill:#E94D58;}
	.st1{fill:#E73B3B;}
	.st2{fill:#EE7B82;}
	.st3{fill:#F5B3BC;}
	.st4{fill:url(#SVGID_1_);}
	.st5{fill:url(#SVGID_2_);}
	.st6{fill:url(#SVGID_3_);}
	.st7{fill:url(#SVGID_4_);}
	.st8{fill:url(#SVGID_5_);}
	.st9{fill:url(#SVGID_6_);}
	.st10{fill:url(#SVGID_7_);}
	.st11{fill:url(#SVGID_8_);}
	.st12{fill:url(#SVGID_9_);}
	.st13{fill:url(#SVGID_10_);}
</style>
<g>
	<path class="st0" d="M10.14,136.76c0,0-25.14-64.08,3.75-101.22s93.06,8.81,93.06,8.81S19.45,11.85,10.14,136.76z"/>
	<path class="st1" d="M38.9,5.59c0,0,66.15-19.05,100.43,13.17s-17.45,91.83-17.45,91.83S162.4,26.51,38.9,5.59z"/>
	<path class="st2" d="M161.21,30.12c0,0,32.17,60.86,7.63,101s-93.46,1.69-93.46,1.69S165.97,155.28,161.21,30.12z"/>
	<path class="st3" d="M139.4,163.04c0,0-63.59,26.35-101.27-1.82s7.03-93.21,7.03-93.21S14.34,156.12,139.4,163.04z"/>
</g>
<g>
	<path class="st2" d="M205.46,157.6V20.78h59.42c9.12,0,16.84,1.34,23.16,4.01c6.32,2.67,11.11,6.55,14.37,11.63
		c3.26,5.08,4.89,11.14,4.89,18.18c0,7.82-1.95,14.34-5.86,19.55c-3.91,5.21-9.51,8.8-16.81,10.75l-0.2-3.91
		c5.99,1.43,11.27,3.78,15.83,7.04c4.56,3.26,8.08,7.3,10.56,12.12c2.47,4.82,3.71,10.29,3.71,16.42c0,6.78-1.11,12.74-3.32,17.88
		c-2.22,5.15-5.47,9.42-9.77,12.8c-4.3,3.39-9.35,5.96-15.15,7.72c-5.8,1.76-12.28,2.64-19.45,2.64H205.46z M233.61,76.29h27.76
		c3.52,0,6.58-0.65,9.19-1.96c2.6-1.3,4.59-3.06,5.96-5.28c1.37-2.22,2.05-4.82,2.05-7.82c0-4.82-1.56-8.53-4.69-11.14
		c-3.13-2.6-7.82-3.91-14.07-3.91h-26.19V76.29z M233.61,132.19h32.06c4.17,0,7.72-0.62,10.65-1.86c2.93-1.24,5.18-3.16,6.74-5.77
		c1.56-2.6,2.35-5.67,2.35-9.19c0-3.39-0.85-6.25-2.54-8.6c-1.69-2.34-4.07-4.13-7.13-5.38c-3.06-1.24-6.74-1.86-11.04-1.86h-31.08
		V132.19z"/>
	<path class="st2" d="M375.71,159.56c-8.6,0-16.36-2.35-23.26-7.04c-6.91-4.69-12.38-11.07-16.42-19.16
		c-4.04-8.08-6.06-17.33-6.06-27.76c0-10.42,2.05-19.64,6.16-27.66c4.11-8.01,9.68-14.33,16.71-18.96
		c7.04-4.63,15.05-6.94,24.04-6.94c5.08,0,9.74,0.75,13.98,2.25c4.23,1.5,7.95,3.55,11.14,6.16c3.19,2.61,5.9,5.61,8.11,8.99
		c2.22,3.39,3.78,7.04,4.69,10.95l-5.86-0.98V54.2h27.56v103.4h-27.95v-24.82l6.25-0.59c-1.04,3.65-2.74,7.1-5.08,10.36
		c-2.35,3.26-5.25,6.16-8.7,8.7c-3.45,2.54-7.33,4.56-11.63,6.06C385.09,158.81,380.53,159.56,375.71,159.56z M383.33,135.51
		c5.21,0,9.77-1.24,13.68-3.71c3.91-2.47,6.94-5.96,9.09-10.46c2.15-4.5,3.23-9.74,3.23-15.74c0-5.86-1.08-11.01-3.23-15.44
		c-2.15-4.43-5.18-7.92-9.09-10.46c-3.91-2.54-8.47-3.81-13.68-3.81c-5.08,0-9.55,1.27-13.39,3.81c-3.84,2.54-6.87,6.03-9.09,10.46
		c-2.22,4.43-3.32,9.58-3.32,15.44c0,6,1.11,11.24,3.32,15.74c2.21,4.5,5.24,7.98,9.09,10.46
		C373.78,134.28,378.25,135.51,383.33,135.51z"/>
	<path class="st2" d="M464.25,157.6V54.2h26.58l0.78,21.11l-5.47,2.34c1.43-4.69,4.01-8.96,7.72-12.8
		c3.71-3.84,8.18-6.94,13.39-9.29c5.21-2.35,10.68-3.52,16.42-3.52c7.82,0,14.37,1.56,19.64,4.69c5.28,3.13,9.25,7.85,11.92,14.17
		c2.67,6.32,4.01,14.11,4.01,23.36v63.33h-27.76V96.42c0-4.69-0.65-8.6-1.96-11.73c-1.3-3.13-3.29-5.44-5.96-6.94
		c-2.67-1.5-5.96-2.12-9.87-1.86c-3.13,0-6.03,0.49-8.7,1.47c-2.67,0.98-4.95,2.38-6.84,4.2c-1.89,1.83-3.39,3.91-4.5,6.25
		c-1.11,2.34-1.66,4.88-1.66,7.62v62.16h-13.68c-3,0-5.67,0-8.01,0C467.96,157.6,465.94,157.6,464.25,157.6z"/>
	<path class="st2" d="M630.79,159.56c-9.9,0-18.76-2.35-26.58-7.04c-7.82-4.69-13.97-11.07-18.47-19.16
		c-4.5-8.08-6.74-17.26-6.74-27.56c0-10.16,2.25-19.32,6.74-27.46c4.5-8.14,10.65-14.56,18.47-19.25s16.68-7.04,26.58-7.04
		c9.25,0,17.72,1.69,25.41,5.08c7.69,3.39,13.68,8.08,17.98,14.07l-15.25,18.37c-1.83-2.47-4.1-4.72-6.84-6.74
		c-2.74-2.02-5.7-3.62-8.89-4.79c-3.19-1.17-6.49-1.76-9.87-1.76c-5.35,0-10.07,1.27-14.17,3.81c-4.1,2.54-7.33,6.03-9.67,10.46
		c-2.34,4.43-3.52,9.51-3.52,15.25c0,5.61,1.2,10.59,3.62,14.95c2.41,4.37,5.7,7.89,9.87,10.55c4.17,2.67,8.86,4.01,14.07,4.01
		c3.39,0,6.58-0.49,9.58-1.46c2.99-0.98,5.83-2.44,8.5-4.4c2.67-1.96,5.11-4.3,7.33-7.04l15.05,18.38
		c-4.43,5.6-10.55,10.13-18.37,13.59C647.79,157.83,639.52,159.56,630.79,159.56z"/>
	<path class="st2" d="M739.85,159.56c-10.55,0-19.97-2.31-28.24-6.94c-8.28-4.62-14.79-10.98-19.55-19.06
		c-4.76-8.08-7.13-17.33-7.13-27.76c0-10.42,2.37-19.64,7.13-27.66c4.76-8.01,11.27-14.37,19.55-19.06
		c8.27-4.69,17.69-7.04,28.24-7.04c10.43,0,19.77,2.35,28.05,7.04c8.27,4.69,14.76,11.04,19.45,19.06s7.04,17.24,7.04,27.66
		c0,10.43-2.35,19.68-7.04,27.76c-4.69,8.08-11.17,14.44-19.45,19.06C759.63,157.25,750.28,159.56,739.85,159.56z M739.85,135.32
		c5.08,0,9.64-1.27,13.68-3.81c4.04-2.54,7.2-6.06,9.48-10.55c2.28-4.5,3.42-9.54,3.42-15.15c0-5.73-1.14-10.85-3.42-15.34
		c-2.28-4.5-5.44-8.01-9.48-10.55c-4.04-2.54-8.6-3.81-13.68-3.81c-5.21,0-9.84,1.3-13.88,3.91c-4.04,2.61-7.23,6.13-9.58,10.55
		c-2.34,4.43-3.45,9.51-3.32,15.25c-0.13,5.61,0.98,10.65,3.32,15.15c2.35,4.5,5.54,8.01,9.58,10.55
		C730.01,134.05,734.64,135.32,739.85,135.32z"/>
	<path class="st1" d="M861.43,159.56c-6.91,0-13.42-0.98-19.55-2.93c-6.13-1.96-11.73-4.89-16.81-8.8
		c-5.08-3.91-9.58-8.73-13.49-14.47l10.55-11.73c6.12,8.73,12.41,14.85,18.86,18.37c6.45,3.52,13.71,5.28,21.8,5.28
		c5.86,0,11.2-0.98,16.03-2.93c4.82-1.96,8.6-4.69,11.34-8.21c2.74-3.52,4.11-7.56,4.11-12.12c0-3-0.49-5.67-1.47-8.01
		c-0.98-2.35-2.44-4.43-4.4-6.25c-1.95-1.82-4.37-3.45-7.23-4.89c-2.87-1.43-6.16-2.74-9.87-3.91c-3.71-1.17-7.85-2.34-12.41-3.52
		c-6.64-1.56-12.48-3.42-17.49-5.57c-5.02-2.15-9.25-4.79-12.71-7.92c-3.45-3.13-6.06-6.74-7.82-10.85
		c-1.76-4.11-2.64-8.96-2.64-14.56c0-5.34,1.14-10.29,3.42-14.85c2.28-4.56,5.44-8.5,9.48-11.83c4.04-3.32,8.8-5.89,14.27-7.72
		c5.47-1.82,11.34-2.74,17.59-2.74c7.04,0,13.32,0.95,18.86,2.83c5.54,1.89,10.46,4.66,14.76,8.31c4.3,3.65,8.01,8.01,11.14,13.1
		L897.01,54.2c-2.74-4.3-5.83-8.01-9.29-11.14c-3.45-3.13-7.23-5.5-11.34-7.13c-4.11-1.63-8.64-2.44-13.59-2.44
		c-5.74,0-10.78,0.98-15.15,2.93c-4.37,1.95-7.79,4.66-10.26,8.11c-2.48,3.45-3.71,7.4-3.71,11.83c0,3.26,0.59,6.16,1.76,8.7
		c1.17,2.54,3.03,4.76,5.57,6.64c2.54,1.89,5.86,3.59,9.97,5.08c4.1,1.5,9.02,2.9,14.76,4.2c6.77,1.56,12.87,3.45,18.28,5.67
		c5.41,2.22,10.03,4.86,13.88,7.92c3.84,3.06,6.77,6.61,8.8,10.65c2.02,4.04,3.03,8.67,3.03,13.88c0,8.08-2.02,15.15-6.06,21.21
		c-4.04,6.06-9.68,10.78-16.91,14.17C879.51,157.86,871.07,159.56,861.43,159.56z"/>
	<path class="st1" d="M945.68,33.48c-3.65,0-6.42-0.94-8.31-2.83c-1.89-1.89-2.84-4.46-2.84-7.72c0-3.26,0.98-5.86,2.93-7.82
		c1.96-1.95,4.69-2.93,8.21-2.93c3.52,0,6.25,0.95,8.21,2.83c1.95,1.89,2.93,4.53,2.93,7.92c0,3.13-0.98,5.67-2.93,7.62
		C951.93,32.5,949.2,33.48,945.68,33.48z M938.44,157.6V55.57h14.66V157.6H938.44z"/>
	<path class="st1" d="M984.96,157.6V55.57h14.66l0.39,23.26l-2.93,0.98c1.04-3.91,2.77-7.46,5.18-10.65
		c2.41-3.19,5.31-5.96,8.7-8.31c3.39-2.34,7.1-4.14,11.14-5.38c4.04-1.24,8.27-1.86,12.71-1.86c5.34,0,10.13,0.88,14.37,2.64
		c4.24,1.76,7.82,4.76,10.75,8.99c2.93,4.24,5.18,9.81,6.74,16.71l-3.52-1.76l1.37-3.32c1.3-3,3.23-5.9,5.77-8.7
		c2.54-2.8,5.47-5.31,8.8-7.53c3.32-2.21,6.97-3.94,10.95-5.18c3.97-1.24,8.04-1.86,12.22-1.86c7.16,0,13.22,1.53,18.18,4.59
		c4.95,3.06,8.7,7.72,11.24,13.98c2.54,6.25,3.81,14.2,3.81,23.85v61.57h-15.05V96.81c0-6.78-0.85-12.31-2.54-16.62
		c-1.69-4.3-4.2-7.52-7.53-9.67c-3.32-2.15-7.52-3.22-12.61-3.22c-4.43,0-8.5,0.75-12.22,2.25c-3.71,1.5-6.91,3.59-9.58,6.25
		c-2.67,2.67-4.76,5.7-6.25,9.09c-1.5,3.39-2.25,7.04-2.25,10.95v61.77h-14.85V96.62c0-6.52-0.88-11.92-2.64-16.22
		c-1.76-4.3-4.33-7.56-7.72-9.77c-3.39-2.22-7.56-3.32-12.51-3.32c-4.3,0-8.28,0.75-11.92,2.25c-3.65,1.5-6.81,3.55-9.48,6.16
		c-2.67,2.61-4.76,5.61-6.25,8.99c-1.5,3.39-2.25,7.04-2.25,10.95v61.96H984.96z"/>
	<path class="st1" d="M1163.23,200.61V55.57h14.66l0.39,24.82l-2.74,0.39c1.17-4.95,3.71-9.48,7.62-13.59
		c3.91-4.1,8.66-7.39,14.27-9.87c5.6-2.47,11.53-3.71,17.79-3.71c9.12,0,17.3,2.28,24.53,6.84c7.23,4.56,13,10.82,17.3,18.76
		c4.3,7.95,6.45,17.07,6.45,27.37c0,10.16-2.09,19.22-6.25,27.17c-4.17,7.95-9.91,14.24-17.2,18.86c-7.3,4.63-15.51,6.94-24.63,6.94
		c-6.39,0-12.45-1.31-18.18-3.91c-5.73-2.6-10.62-6.02-14.66-10.26c-4.04-4.23-6.71-8.83-8.01-13.78h3.52v69H1163.23z
		 M1213.07,145.48c6.9,0,13.03-1.69,18.37-5.08c5.34-3.39,9.58-8.01,12.71-13.88s4.69-12.51,4.69-19.94
		c0-7.56-1.56-14.27-4.69-20.13c-3.13-5.86-7.36-10.49-12.71-13.88c-5.35-3.39-11.47-5.08-18.37-5.08c-6.91,0-13.06,1.66-18.47,4.98
		c-5.41,3.32-9.67,7.92-12.8,13.78c-3.13,5.86-4.69,12.58-4.69,20.13c0,7.56,1.56,14.27,4.69,20.13s7.39,10.49,12.8,13.88
		C1200.01,143.79,1206.16,145.48,1213.07,145.48z"/>
	<path class="st1" d="M1285.2,157.6V12.96h14.66V157.6H1285.2z"/>
	<path class="st1" d="M1371.79,159.56c-10.16,0-19.19-2.22-27.07-6.65c-7.89-4.43-14.04-10.62-18.47-18.57
		c-4.43-7.95-6.64-17.07-6.64-27.37c0-7.95,1.24-15.15,3.71-21.6c2.47-6.45,5.96-12.09,10.46-16.91c4.5-4.82,9.87-8.57,16.13-11.24
		c6.25-2.67,13.03-4.01,20.33-4.01c6.91,0,13.19,1.24,18.86,3.71c5.67,2.48,10.55,5.9,14.66,10.26c4.11,4.37,7.2,9.55,9.29,15.54
		c2.08,5.99,3,12.58,2.74,19.74l-0.2,6.84h-85.03l-2.15-12.31h76.04l-3.52,3.32v-4.69c-0.26-4.69-1.63-9.22-4.11-13.59
		c-2.48-4.36-5.96-7.92-10.46-10.65c-4.5-2.74-9.87-4.1-16.13-4.1c-7.3,0-13.62,1.46-18.96,4.4c-5.35,2.93-9.45,7.27-12.31,13
		c-2.87,5.73-4.3,12.84-4.3,21.3c0,8.08,1.56,15.08,4.69,21.01c3.13,5.93,7.59,10.52,13.39,13.78c5.8,3.26,12.8,4.89,21.01,4.89
		c4.82,0,9.61-0.81,14.37-2.44c4.76-1.63,10-4.85,15.74-9.68l7.62,10.56c-3,3-6.58,5.64-10.75,7.92c-4.17,2.28-8.73,4.1-13.68,5.47
		C1382.08,158.87,1377,159.56,1371.79,159.56z"/>
</g>
</svg>
