<?xml version="1.0" encoding="utf-8"?>
<!-- Generator: Adobe Illustrator 23.0.5, SVG Export Plug-In . SVG Version: 6.00 Build 0)  -->
<svg version="1.1" id="Capa_1" xmlns="http://www.w3.org/2000/svg" xmlns:xlink="http://www.w3.org/1999/xlink" x="0px" y="0px"
	 viewBox="0 0 178.06 174.24" style="enable-background:new 0 0 178.06 174.24;" xml:space="preserve">
<style type="text/css">
	.st0{fill:#E94D58;}
	.st1{fill:#E73B3B;}
	.st2{fill:#EE7B82;}
	.st3{fill:#F5B3BC;}
	.st4{fill:url(#SVGID_1_);}
	.st5{fill:url(#SVGID_2_);}
	.st6{fill:url(#SVGID_3_);}
	.st7{fill:url(#SVGID_4_);}
	.st8{fill:url(#SVGID_5_);}
	.st9{fill:url(#SVGID_6_);}
	.st10{fill:url(#SVGID_7_);}
	.st11{fill:url(#SVGID_8_);}
	.st12{fill:url(#SVGID_9_);}
	.st13{fill:url(#SVGID_10_);}
</style>
<g>
	<path class="st0" d="M10.14,136.76c0,0-25.14-64.08,3.75-101.22s93.06,8.81,93.06,8.81S19.45,11.85,10.14,136.76z"/>
	<path class="st1" d="M38.9,5.59c0,0,66.15-19.05,100.43,13.17s-17.45,91.83-17.45,91.83S162.4,26.51,38.9,5.59z"/>
	<path class="st2" d="M161.21,30.12c0,0,32.17,60.86,7.63,101s-93.46,1.69-93.46,1.69S165.97,155.28,161.21,30.12z"/>
	<path class="st3" d="M139.4,163.04c0,0-63.59,26.35-101.27-1.82s7.03-93.21,7.03-93.21S14.34,156.12,139.4,163.04z"/>
</g>
</svg>
