<svg id="Capa_1" data-name="Capa 1" xmlns="http://www.w3.org/2000/svg" xmlns:xlink="http://www.w3.org/1999/xlink" viewBox="0 0 1029.93 728.33">
  <defs>
    <linearGradient id="Degradado_sin_nombre_91" data-name="Degradado sin nombre 91" x1="648.57" y1="6447.07" x2="1162.47" y2="6447.07" gradientTransform="translate(1676.48 6811.23) rotate(180)" gradientUnits="userSpaceOnUse">
      <stop offset="0" stop-color="#283478"/>
      <stop offset="0.1" stop-color="#304e8e"/>
      <stop offset="0.25" stop-color="#3a6ba6"/>
      <stop offset="0.4" stop-color="#4182b8"/>
      <stop offset="0.56" stop-color="#4692c6"/>
      <stop offset="0.75" stop-color="#499bce"/>
      <stop offset="1" stop-color="#4a9ed0"/>
    </linearGradient>
    <linearGradient id="Degradado_sin_nombre_12" data-name="Degradado sin nombre 12" x1="307.8" y1="363.77" x2="1035.34" y2="363.77" gradientUnits="userSpaceOnUse">
      <stop offset="0.33" stop-color="#f08632"/>
      <stop offset="0.49" stop-color="#f2923b"/>
      <stop offset="0.79" stop-color="#f7b153"/>
      <stop offset="1" stop-color="#fccb68"/>
    </linearGradient>
  </defs>
  <title>logos svg</title>
  <g>
    <path d="M651.1,139.92c4.18-.23,8.39-.37,12.64-.37,124,0,224.62,100.56,224.62,224.62S787.79,588.78,663.74,588.78c-4.25,0-8.46-.14-12.65-.37A365.22,365.22,0,0,1,514,696.1a362.6,362.6,0,0,0,149.74,32.23c201.12,0,364.17-163,364.17-364.16S864.86,0,663.74,0A362.68,362.68,0,0,0,514,32.23,365.37,365.37,0,0,1,651.1,139.92Z" fill="url(#Degradado_sin_nombre_91)"/>
    <path d="M365.79,0C164.89,0,2,162.86,2,363.77S164.89,727.54,365.79,727.54,729.56,564.67,729.56,363.77,566.69,0,365.79,0ZM365,567.54c-104.38,0-189-90.89-189-203s84.62-203,189-203,189,90.88,189,203S469.4,567.54,365,567.54Z" fill="url(#Degradado_sin_nombre_12)"/>
  </g>
</svg>
