<?xml version="1.0" encoding="utf-8"?>
<!-- Generator: Adobe Illustrator 23.0.5, SVG Export Plug-In . SVG Version: 6.00 Build 0)  -->
<svg version="1.1" id="Capa_1" xmlns="http://www.w3.org/2000/svg" xmlns:xlink="http://www.w3.org/1999/xlink" x="0px" y="0px"
	 viewBox="0 0 1463.1 185.8" style="enable-background:new 0 0 1463.1 185.8;" xml:space="preserve">
<style type="text/css">
	.st0{fill:#E94D58;}
	.st1{fill:#E73B3B;}
	.st2{fill:#EE7B82;}
	.st3{fill:#F5B3BC;}
	.st4{fill:url(#SVGID_1_);}
	.st5{fill:url(#SVGID_2_);}
	.st6{fill:url(#SVGID_3_);}
	.st7{fill:url(#SVGID_4_);}
	.st8{fill:url(#SVGID_5_);}
	.st9{fill:url(#SVGID_6_);}
	.st10{fill:url(#SVGID_7_);}
	.st11{fill:url(#SVGID_8_);}
	.st12{fill:url(#SVGID_9_);}
	.st13{fill:url(#SVGID_10_);}
</style>
<g>
	<g>
		
			<linearGradient id="SVGID_1_" gradientUnits="userSpaceOnUse" x1="-2052.9807" y1="225.9934" x2="-1925.9059" y2="225.9934" gradientTransform="matrix(-1 0 0 -1 -1476.1901 321.996)">
			<stop  offset="0" style="stop-color:#283478"/>
			<stop  offset="0.1031" style="stop-color:#304E8E"/>
			<stop  offset="0.246" style="stop-color:#3A6BA6"/>
			<stop  offset="0.3986" style="stop-color:#4182B8"/>
			<stop  offset="0.5634" style="stop-color:#4692C6"/>
			<stop  offset="0.7492" style="stop-color:#499BCE"/>
			<stop  offset="1" style="stop-color:#4A9ED0"/>
		</linearGradient>
		<path class="st4" d="M483.61,40.55c1.04-0.06,2.08-0.09,3.13-0.09c30.68,0,55.54,24.87,55.54,55.54s-24.87,55.54-55.54,55.54
			c-1.05,0-2.09-0.04-3.13-0.09c-8.93,11.41-20.54,20.6-33.9,26.63c11.3,5.1,23.82,7.97,37.03,7.97c49.73,0,90.05-40.32,90.05-90.05
			c0-49.73-40.32-90.05-90.05-90.05c-13.2,0-25.73,2.86-37.03,7.97C463.07,19.96,474.69,29.15,483.61,40.55z"/>
	</g>
	<g>
		<g>
			<path d="M0,183.57V9.92h121.06v35.97H40.94V147.6h82.6v35.97H0z M19.85,112.38V78.14h90.05v34.23H19.85z"/>
			<path d="M238.89,186.05c-13.07,0-25.1-2.19-36.1-6.57c-11-4.38-20.55-10.58-28.65-18.61c-8.1-8.02-14.35-17.53-18.73-28.53
				c-4.38-11-6.57-23.11-6.57-36.34c0-12.9,2.31-24.81,6.95-35.72c4.63-10.92,11.04-20.38,19.22-28.4
				c8.19-8.02,17.86-14.26,29.03-18.73c11.16-4.47,23.35-6.7,36.59-6.7c8.27,0,16.38,1.08,24.31,3.23
				c7.94,2.15,15.34,5.33,22.2,9.55c6.86,4.22,12.78,9.22,17.74,15.01l-25.8,29.52c-3.47-3.64-7.15-6.82-11.04-9.55
				c-3.89-2.73-8.15-4.84-12.77-6.33c-4.63-1.49-9.59-2.23-14.89-2.23c-6.61,0-12.86,1.2-18.73,3.6c-5.87,2.4-11,5.79-15.38,10.17
				c-4.38,4.38-7.81,9.72-10.3,16c-2.48,6.29-3.72,13.31-3.72,21.09c0,7.61,1.24,14.51,3.72,20.71c2.48,6.2,5.95,11.54,10.42,16
				c4.46,4.47,9.88,7.86,16.25,10.17c6.37,2.32,13.43,3.47,21.21,3.47c5.29,0,10.33-0.74,15.13-2.23c4.8-1.49,9.22-3.51,13.28-6.08
				c4.05-2.56,7.64-5.5,10.79-8.81l20.34,32.25c-4.14,4.63-9.64,8.77-16.5,12.4c-6.86,3.64-14.47,6.49-22.82,8.56
				C255.72,185.02,247.32,186.05,238.89,186.05z"/>
			<path d="M411.29,186.05c-13.23,0-25.3-2.23-36.22-6.7c-10.91-4.46-20.43-10.75-28.53-18.85c-8.1-8.1-14.38-17.61-18.85-28.53
				C323.23,121.06,321,109.07,321,96c0-13.06,2.23-25.06,6.69-35.97c4.47-10.92,10.75-20.42,18.85-28.53
				c8.1-8.1,17.62-14.39,28.53-18.85c10.91-4.46,22.91-6.7,35.97-6.7s25.06,2.23,35.97,6.7c10.91,4.47,20.42,10.75,28.53,18.85
				c8.1,8.11,14.34,17.61,18.73,28.53c4.38,10.91,6.58,22.91,6.58,35.97c0,12.9-2.2,24.85-6.58,35.85
				c-4.38,11-10.63,20.55-18.73,28.65c-8.11,8.11-17.62,14.39-28.53,18.85C436.1,183.82,424.19,186.05,411.29,186.05z
				 M411.05,146.36c6.78,0,13.02-1.24,18.73-3.72c5.71-2.48,10.67-5.99,14.89-10.54c4.22-4.55,7.48-9.88,9.8-16
				c2.31-6.12,3.47-12.82,3.47-20.1c0-7.27-1.16-13.97-3.47-20.09c-2.32-6.12-5.58-11.45-9.8-16c-4.22-4.55-9.18-8.06-14.89-10.54
				c-5.71-2.48-11.95-3.72-18.73-3.72c-6.78,0-13.02,1.24-18.73,3.72c-5.71,2.48-10.71,6-15.01,10.54c-4.3,4.55-7.56,9.88-9.79,16
				c-2.23,6.12-3.35,12.82-3.35,20.09c0,7.28,1.11,14.02,3.35,20.22c2.23,6.2,5.49,11.53,9.79,16c4.3,4.46,9.3,7.94,15.01,10.42
				C398.02,145.12,404.26,146.36,411.05,146.36z"/>
			<path d="M601.81,183.57V9.92h37.71l63.26,102.95l-27.04-0.25l64-102.7h36.22v173.65h-40.93v-54.08c0-14.88,0.37-28.28,1.11-40.19
				c0.74-11.91,2.02-23.73,3.85-35.47l4.71,12.9l-48.12,74.67H680.2l-47.14-74.17l4.71-13.4c1.82,11.08,3.1,22.45,3.85,34.11
				s1.12,25.51,1.12,41.55v54.08H601.81z"/>
			<path d="M864.02,185.8c-11.08,0-20.97-2.93-29.65-8.81c-8.68-5.87-15.59-13.97-20.71-24.31c-5.13-10.34-7.69-22.04-7.69-35.1
				c0-13.39,2.56-25.22,7.69-35.47c5.12-10.25,12.16-18.31,21.08-24.19c8.93-5.87,19.1-8.81,30.51-8.81
				c6.29,0,12.03,0.91,17.24,2.73c5.21,1.82,9.8,4.34,13.77,7.57c3.97,3.23,7.36,6.95,10.17,11.16c2.81,4.22,4.88,8.73,6.2,13.52
				l-8.19-0.99V51.85h39.45v131.73h-40.19v-31.75l8.93-0.25c-1.33,4.63-3.48,9.02-6.45,13.15c-2.98,4.14-6.62,7.78-10.91,10.92
				c-4.31,3.14-9.1,5.62-14.39,7.44C875.59,184.89,869.97,185.8,864.02,185.8z M874.93,152.31c6.12,0,11.41-1.4,15.87-4.22
				c4.47-2.81,7.94-6.82,10.42-12.03c2.48-5.21,3.72-11.37,3.72-18.48c0-7.11-1.24-13.27-3.72-18.48
				c-2.48-5.21-5.95-9.26-10.42-12.16c-4.46-2.89-9.76-4.34-15.87-4.34c-5.95,0-11.13,1.45-15.5,4.34
				c-4.38,2.89-7.81,6.95-10.3,12.16c-2.48,5.21-3.72,11.37-3.72,18.48c0,7.11,1.24,13.27,3.72,18.48
				c2.48,5.21,5.91,9.22,10.3,12.03C863.81,150.91,868.98,152.31,874.93,152.31z"/>
			<path d="M978.87,183.57V51.85h37.71l1.74,42.92l-7.44-8.19c1.98-7.11,5.24-13.48,9.8-19.1c4.54-5.62,9.88-10.08,16-13.39
				c6.12-3.31,12.65-4.96,19.59-4.96c2.98,0,5.75,0.25,8.32,0.74c2.56,0.5,4.92,1.08,7.07,1.74l-10.91,43.91
				c-1.82-1.15-4.26-2.11-7.32-2.85c-3.06-0.74-6.24-1.11-9.55-1.11c-3.64,0-7.03,0.62-10.17,1.86c-3.14,1.24-5.79,3.02-7.94,5.33
				c-2.15,2.32-3.85,5.05-5.08,8.19c-1.24,3.14-1.87,6.7-1.87,10.67v65.99H978.87z"/>
			<path d="M1091.74,183.57V0h39.69v183.57H1091.74z M1129.94,144.87l-14.64-29.77l61.52-63.26h52.35L1129.94,144.87z
				 M1181.05,183.57l-46.39-60.03l28.03-21.83l65.25,81.86H1181.05z"/>
			<path d="M1304.34,186.05c-14.55,0-27.21-2.93-37.96-8.81c-10.75-5.87-19.1-13.89-25.06-24.06c-5.95-10.17-8.93-21.79-8.93-34.85
				c0-10.09,1.65-19.35,4.97-27.78c3.31-8.43,7.93-15.75,13.89-21.95c5.95-6.2,13.03-11,21.21-14.39
				c8.19-3.39,17.16-5.09,26.92-5.09c9.26,0,17.73,1.66,25.42,4.96c7.69,3.31,14.35,7.94,19.97,13.89
				c5.62,5.95,9.93,12.98,12.9,21.09c2.98,8.11,4.3,16.95,3.97,26.55l-0.25,10.67h-104.93l-5.71-22.32h78.39l-4.22,4.71v-4.96
				c-0.33-4.13-1.61-7.82-3.84-11.04c-2.23-3.23-5.17-5.74-8.81-7.56c-3.64-1.82-7.78-2.73-12.4-2.73c-6.45,0-11.96,1.28-16.5,3.84
				c-4.55,2.57-7.98,6.29-10.3,11.16c-2.32,4.88-3.48,10.87-3.48,17.98c0,7.28,1.53,13.61,4.59,18.98
				c3.06,5.38,7.52,9.55,13.4,12.53c5.87,2.98,12.86,4.46,20.96,4.46c5.62,0,10.62-0.82,15.01-2.48c4.38-1.65,9.14-4.46,14.26-8.43
				l18.61,26.29c-5.12,4.47-10.58,8.11-16.37,10.92c-5.79,2.81-11.7,4.92-17.74,6.33C1316.28,185.35,1310.29,186.05,1304.34,186.05z
				"/>
			<path d="M1374.54,86.58V51.85h88.56v34.73H1374.54z M1397.86,183.57V18.61h39.69v164.97H1397.86z"/>
		</g>
		<g>
			
				<linearGradient id="SVGID_2_" gradientUnits="userSpaceOnUse" x1="443.2352" y1="312.5346" x2="1906.3334" y2="312.5346" gradientTransform="matrix(1 0 0 1 -443.2352 -219.5088)">
				<stop  offset="0.0758" style="stop-color:#EE781C"/>
				<stop  offset="1" style="stop-color:#FCCB68"/>
			</linearGradient>
			<path class="st5" d="M0,183.57V9.92h121.06v35.97H40.94V147.6h82.6v35.97H0z M19.85,112.38V78.14h90.05v34.23H19.85z"/>
			
				<linearGradient id="SVGID_3_" gradientUnits="userSpaceOnUse" x1="443.2352" y1="312.5346" x2="1906.3334" y2="312.5346" gradientTransform="matrix(1 0 0 1 -443.2352 -219.5088)">
				<stop  offset="0.0758" style="stop-color:#EE781C"/>
				<stop  offset="1" style="stop-color:#FCCB68"/>
			</linearGradient>
			<path class="st6" d="M238.89,186.05c-13.07,0-25.1-2.19-36.1-6.57c-11-4.38-20.55-10.58-28.65-18.61
				c-8.1-8.02-14.35-17.53-18.73-28.53c-4.38-11-6.57-23.11-6.57-36.34c0-12.9,2.31-24.81,6.95-35.72
				c4.63-10.92,11.04-20.38,19.22-28.4c8.19-8.02,17.86-14.26,29.03-18.73c11.16-4.47,23.35-6.7,36.59-6.7
				c8.27,0,16.38,1.08,24.31,3.23c7.94,2.15,15.34,5.33,22.2,9.55c6.86,4.22,12.78,9.22,17.74,15.01l-25.8,29.52
				c-3.47-3.64-7.15-6.82-11.04-9.55c-3.89-2.73-8.15-4.84-12.77-6.33c-4.63-1.49-9.59-2.23-14.89-2.23c-6.61,0-12.86,1.2-18.73,3.6
				c-5.87,2.4-11,5.79-15.38,10.17c-4.38,4.38-7.81,9.72-10.3,16c-2.48,6.29-3.72,13.31-3.72,21.09c0,7.61,1.24,14.51,3.72,20.71
				c2.48,6.2,5.95,11.54,10.42,16c4.46,4.47,9.88,7.86,16.25,10.17c6.37,2.32,13.43,3.47,21.21,3.47c5.29,0,10.33-0.74,15.13-2.23
				c4.8-1.49,9.22-3.51,13.28-6.08c4.05-2.56,7.64-5.5,10.79-8.81l20.34,32.25c-4.14,4.63-9.64,8.77-16.5,12.4
				c-6.86,3.64-14.47,6.49-22.82,8.56C255.72,185.02,247.32,186.05,238.89,186.05z"/>
			
				<linearGradient id="SVGID_4_" gradientUnits="userSpaceOnUse" x1="443.2352" y1="312.5346" x2="1906.3334" y2="312.5346" gradientTransform="matrix(1 0 0 1 -443.2352 -219.5088)">
				<stop  offset="0.0758" style="stop-color:#EE781C"/>
				<stop  offset="1" style="stop-color:#FCCB68"/>
			</linearGradient>
			<path class="st7" d="M411.29,186.05c-13.23,0-25.3-2.23-36.22-6.7c-10.91-4.46-20.43-10.75-28.53-18.85
				c-8.1-8.1-14.38-17.61-18.85-28.53C323.23,121.06,321,109.07,321,96c0-13.06,2.23-25.06,6.69-35.97
				c4.47-10.92,10.75-20.42,18.85-28.53c8.1-8.1,17.62-14.39,28.53-18.85c10.91-4.46,22.91-6.7,35.97-6.7s25.06,2.23,35.97,6.7
				c10.91,4.47,20.42,10.75,28.53,18.85c8.1,8.11,14.34,17.61,18.73,28.53c4.38,10.91,6.58,22.91,6.58,35.97
				c0,12.9-2.2,24.85-6.58,35.85c-4.38,11-10.63,20.55-18.73,28.65c-8.11,8.11-17.62,14.39-28.53,18.85
				C436.1,183.82,424.19,186.05,411.29,186.05z M411.05,146.36c6.78,0,13.02-1.24,18.73-3.72c5.71-2.48,10.67-5.99,14.89-10.54
				c4.22-4.55,7.48-9.88,9.8-16c2.31-6.12,3.47-12.82,3.47-20.1c0-7.27-1.16-13.97-3.47-20.09c-2.32-6.12-5.58-11.45-9.8-16
				c-4.22-4.55-9.18-8.06-14.89-10.54c-5.71-2.48-11.95-3.72-18.73-3.72c-6.78,0-13.02,1.24-18.73,3.72
				c-5.71,2.48-10.71,6-15.01,10.54c-4.3,4.55-7.56,9.88-9.79,16c-2.23,6.12-3.35,12.82-3.35,20.09c0,7.28,1.11,14.02,3.35,20.22
				c2.23,6.2,5.49,11.53,9.79,16c4.3,4.46,9.3,7.94,15.01,10.42C398.02,145.12,404.26,146.36,411.05,146.36z"/>
			
				<linearGradient id="SVGID_5_" gradientUnits="userSpaceOnUse" x1="443.2352" y1="312.5346" x2="1906.3334" y2="312.5346" gradientTransform="matrix(1 0 0 1 -443.2352 -219.5088)">
				<stop  offset="0.0758" style="stop-color:#EE781C"/>
				<stop  offset="1" style="stop-color:#FCCB68"/>
			</linearGradient>
			<path class="st8" d="M601.81,183.57V9.92h37.71l63.26,102.95l-27.04-0.25l64-102.7h36.22v173.65h-40.93v-54.08
				c0-14.88,0.37-28.28,1.11-40.19c0.74-11.91,2.02-23.73,3.85-35.47l4.71,12.9l-48.12,74.67H680.2l-47.14-74.17l4.71-13.4
				c1.82,11.08,3.1,22.45,3.85,34.11s1.12,25.51,1.12,41.55v54.08H601.81z"/>
			
				<linearGradient id="SVGID_6_" gradientUnits="userSpaceOnUse" x1="443.2352" y1="312.5346" x2="1906.3334" y2="312.5346" gradientTransform="matrix(1 0 0 1 -443.2352 -219.5088)">
				<stop  offset="0.0758" style="stop-color:#EE781C"/>
				<stop  offset="1" style="stop-color:#FCCB68"/>
			</linearGradient>
			<path class="st9" d="M864.02,185.8c-11.08,0-20.97-2.93-29.65-8.81c-8.68-5.87-15.59-13.97-20.71-24.31
				c-5.13-10.34-7.69-22.04-7.69-35.1c0-13.39,2.56-25.22,7.69-35.47c5.12-10.25,12.16-18.31,21.08-24.19
				c8.93-5.87,19.1-8.81,30.51-8.81c6.29,0,12.03,0.91,17.24,2.73c5.21,1.82,9.8,4.34,13.77,7.57c3.97,3.23,7.36,6.95,10.17,11.16
				c2.81,4.22,4.88,8.73,6.2,13.52l-8.19-0.99V51.85h39.45v131.73h-40.19v-31.75l8.93-0.25c-1.33,4.63-3.48,9.02-6.45,13.15
				c-2.98,4.14-6.62,7.78-10.91,10.92c-4.31,3.14-9.1,5.62-14.39,7.44C875.59,184.89,869.97,185.8,864.02,185.8z M874.93,152.31
				c6.12,0,11.41-1.4,15.87-4.22c4.47-2.81,7.94-6.82,10.42-12.03c2.48-5.21,3.72-11.37,3.72-18.48c0-7.11-1.24-13.27-3.72-18.48
				c-2.48-5.21-5.95-9.26-10.42-12.16c-4.46-2.89-9.76-4.34-15.87-4.34c-5.95,0-11.13,1.45-15.5,4.34
				c-4.38,2.89-7.81,6.95-10.3,12.16c-2.48,5.21-3.72,11.37-3.72,18.48c0,7.11,1.24,13.27,3.72,18.48
				c2.48,5.21,5.91,9.22,10.3,12.03C863.81,150.91,868.98,152.31,874.93,152.31z"/>
			
				<linearGradient id="SVGID_7_" gradientUnits="userSpaceOnUse" x1="443.2352" y1="312.5346" x2="1906.3334" y2="312.5346" gradientTransform="matrix(1 0 0 1 -443.2352 -219.5088)">
				<stop  offset="0.0758" style="stop-color:#EE781C"/>
				<stop  offset="1" style="stop-color:#FCCB68"/>
			</linearGradient>
			<path class="st10" d="M978.87,183.57V51.85h37.71l1.74,42.92l-7.44-8.19c1.98-7.11,5.24-13.48,9.8-19.1
				c4.54-5.62,9.88-10.08,16-13.39c6.12-3.31,12.65-4.96,19.59-4.96c2.98,0,5.75,0.25,8.32,0.74c2.56,0.5,4.92,1.08,7.07,1.74
				l-10.91,43.91c-1.82-1.15-4.26-2.11-7.32-2.85c-3.06-0.74-6.24-1.11-9.55-1.11c-3.64,0-7.03,0.62-10.17,1.86
				c-3.14,1.24-5.79,3.02-7.94,5.33c-2.15,2.32-3.85,5.05-5.08,8.19c-1.24,3.14-1.87,6.7-1.87,10.67v65.99H978.87z"/>
			
				<linearGradient id="SVGID_8_" gradientUnits="userSpaceOnUse" x1="443.2352" y1="312.5346" x2="1906.3334" y2="312.5346" gradientTransform="matrix(1 0 0 1 -443.2352 -219.5088)">
				<stop  offset="0.0758" style="stop-color:#EE781C"/>
				<stop  offset="1" style="stop-color:#FCCB68"/>
			</linearGradient>
			<path class="st11" d="M1091.74,183.57V0h39.69v183.57H1091.74z M1129.94,144.87l-14.64-29.77l61.52-63.26h52.35L1129.94,144.87z
				 M1181.05,183.57l-46.39-60.03l28.03-21.83l65.25,81.86H1181.05z"/>
			
				<linearGradient id="SVGID_9_" gradientUnits="userSpaceOnUse" x1="443.2352" y1="312.5346" x2="1906.3334" y2="312.5346" gradientTransform="matrix(1 0 0 1 -443.2352 -219.5088)">
				<stop  offset="0.0758" style="stop-color:#EE781C"/>
				<stop  offset="1" style="stop-color:#FCCB68"/>
			</linearGradient>
			<path class="st12" d="M1304.34,186.05c-14.55,0-27.21-2.93-37.96-8.81c-10.75-5.87-19.1-13.89-25.06-24.06
				c-5.95-10.17-8.93-21.79-8.93-34.85c0-10.09,1.65-19.35,4.97-27.78c3.31-8.43,7.93-15.75,13.89-21.95
				c5.95-6.2,13.03-11,21.21-14.39c8.19-3.39,17.16-5.09,26.92-5.09c9.26,0,17.73,1.66,25.42,4.96c7.69,3.31,14.35,7.94,19.97,13.89
				c5.62,5.95,9.93,12.98,12.9,21.09c2.98,8.11,4.3,16.95,3.97,26.55l-0.25,10.67h-104.93l-5.71-22.32h78.39l-4.22,4.71v-4.96
				c-0.33-4.13-1.61-7.82-3.84-11.04c-2.23-3.23-5.17-5.74-8.81-7.56c-3.64-1.82-7.78-2.73-12.4-2.73c-6.45,0-11.96,1.28-16.5,3.84
				c-4.55,2.57-7.98,6.29-10.3,11.16c-2.32,4.88-3.48,10.87-3.48,17.98c0,7.28,1.53,13.61,4.59,18.98
				c3.06,5.38,7.52,9.55,13.4,12.53c5.87,2.98,12.86,4.46,20.96,4.46c5.62,0,10.62-0.82,15.01-2.48c4.38-1.65,9.14-4.46,14.26-8.43
				l18.61,26.29c-5.12,4.47-10.58,8.11-16.37,10.92c-5.79,2.81-11.7,4.92-17.74,6.33C1316.28,185.35,1310.29,186.05,1304.34,186.05z
				"/>
			
				<linearGradient id="SVGID_10_" gradientUnits="userSpaceOnUse" x1="443.2352" y1="312.5346" x2="1906.3334" y2="312.5346" gradientTransform="matrix(1 0 0 1 -443.2352 -219.5088)">
				<stop  offset="0.0758" style="stop-color:#EE781C"/>
				<stop  offset="1" style="stop-color:#FCCB68"/>
			</linearGradient>
			<path class="st13" d="M1374.54,86.58V51.85h88.56v34.73H1374.54z M1397.86,183.57V18.61h39.69v164.97H1397.86z"/>
		</g>
	</g>
</g>
</svg>
