<?xml version="1.0" encoding="utf-8"?>
<!-- Generator: Adobe Illustrator 23.0.5, SVG Export Plug-In . SVG Version: 6.00 Build 0)  -->
<svg version="1.1" id="Capa_1" xmlns="http://www.w3.org/2000/svg" xmlns:xlink="http://www.w3.org/1999/xlink" x="0px" y="0px"
	 viewBox="0 0 1920 1080" style="enable-background:new 0 0 1920 1080;" xml:space="preserve">
<style type="text/css">
	.st0{fill:none;stroke:#E0BE41;stroke-width:4;stroke-miterlimit:10;}
	.st1{fill:#A65631;}
	.st2{fill:none;stroke:#E0BE41;stroke-width:13.2734;stroke-miterlimit:10;}
	.st3{fill:#F382A0;}
	.st4{fill:#FEFFFD;}
	.st5{fill:#FACCD7;}
</style>
<g>
	<path class="st3" d="M1758.7,1033.3H161.3c-44.9,0-81.3-36.4-81.3-81.3V128c0-44.9,36.4-81.3,81.3-81.3h1597.3
		c44.9,0,81.3,36.4,81.3,81.3v824C1840,996.9,1803.6,1033.3,1758.7,1033.3z"/>
	<g>
		<path class="st4" d="M495.5,789.8l53.2-134.3h27.6l52.8,134.3h-33l-25.3-68.1c-1-2.7-2-5.6-3.1-8.6c-1-3.1-2-6.2-3.1-9.5
			c-1-3.3-2-6.5-3-9.6c-1-3.1-1.8-6-2.4-8.7l5.8-0.2c-0.8,3.2-1.6,6.3-2.6,9.4c-1,3.1-1.9,6.1-2.9,9.1c-1,3-2,6-3.2,9
			c-1.2,3-2.2,6.1-3.3,9.3l-25.3,67.9H495.5z M520.8,764.1l10.2-24.6h61.8l10,24.6H520.8z"/>
		<path class="st4" d="M702.9,791.8c-10.1,0-19.4-1.7-27.9-5.1c-8.5-3.4-15.9-8.2-22.2-14.4c-6.3-6.2-11.1-13.6-14.5-22.1
			c-3.4-8.5-5.1-17.9-5.1-28.1c0-10,1.8-19.2,5.4-27.6c3.6-8.4,8.5-15.8,14.9-22c6.3-6.2,13.8-11,22.5-14.5
			c8.6-3.5,18.1-5.2,28.3-5.2c6.4,0,12.7,0.8,18.8,2.5c6.1,1.7,11.9,4.1,17.2,7.4c5.3,3.3,9.9,7.1,13.7,11.6l-20,22.8
			c-2.7-2.8-5.5-5.3-8.5-7.4c-3-2.1-6.3-3.7-9.9-4.9c-3.6-1.2-7.4-1.7-11.5-1.7c-5.1,0-10,0.9-14.5,2.8c-4.5,1.9-8.5,4.5-11.9,7.9
			c-3.4,3.4-6,7.5-8,12.4c-1.9,4.9-2.9,10.3-2.9,16.3c0,5.9,1,11.2,2.9,16c1.9,4.8,4.6,8.9,8.1,12.4c3.5,3.5,7.6,6.1,12.6,7.9
			c4.9,1.8,10.4,2.7,16.4,2.7c4.1,0,8-0.6,11.7-1.7c3.7-1.2,7.1-2.7,10.3-4.7c3.1-2,5.9-4.3,8.3-6.8l15.7,24.9
			c-3.2,3.6-7.5,6.8-12.8,9.6c-5.3,2.8-11.2,5-17.7,6.6C716,791,709.5,791.8,702.9,791.8z"/>
		<path class="st4" d="M775.1,789.8V655.5h93.7v27.8h-62V762h63.9v27.8H775.1z M790.4,734.8v-26.5h69.7v26.5H790.4z"/>
		<path class="st4" d="M959.9,791.8c-10.1,0-19.4-1.7-27.8-5.2c-8.4-3.5-15.8-8.3-22.1-14.6c-6.3-6.3-11.1-13.6-14.6-22.1
			c-3.5-8.4-5.2-17.7-5.2-27.8c0-10.1,1.7-19.4,5.2-27.8c3.5-8.4,8.3-15.8,14.6-22.1c6.3-6.3,13.6-11.1,22.1-14.6
			c8.4-3.5,17.7-5.2,27.8-5.2c10.1,0,19.4,1.7,27.8,5.2c8.4,3.5,15.8,8.3,22.1,14.6c6.3,6.3,11.1,13.6,14.5,22.1
			c3.4,8.4,5.1,17.7,5.1,27.8c0,10-1.7,19.2-5.1,27.7c-3.4,8.5-8.2,15.9-14.5,22.2c-6.3,6.3-13.6,11.1-22.1,14.6
			C979.3,790,970,791.8,959.9,791.8z M959.9,761.1c5.2,0,10.1-1,14.5-2.9c4.4-1.9,8.3-4.6,11.5-8.2c3.3-3.5,5.8-7.6,7.6-12.4
			c1.8-4.7,2.7-9.9,2.7-15.5c0-5.6-0.9-10.8-2.7-15.5c-1.8-4.7-4.3-8.9-7.6-12.4c-3.3-3.5-7.1-6.2-11.5-8.2
			c-4.4-1.9-9.2-2.9-14.5-2.9c-5.2,0-10.1,1-14.5,2.9c-4.4,1.9-8.3,4.6-11.6,8.2c-3.3,3.5-5.9,7.6-7.6,12.4
			c-1.7,4.7-2.6,9.9-2.6,15.5c0,5.6,0.9,10.8,2.6,15.6c1.7,4.8,4.3,8.9,7.6,12.4c3.3,3.5,7.2,6.1,11.6,8.1
			C949.8,760.1,954.7,761.1,959.9,761.1z M1000,811l-51.4-69.7l24-16.7l50.9,69.1L1000,811z"/>
		<path class="st4" d="M1111.3,791c-11.1,0-21-2.3-29.7-6.8c-8.7-4.5-15.5-10.8-20.4-18.7c-4.9-7.9-7.4-17-7.4-27.3v-82.7h33v81
			c0,4.9,1.1,9.2,3.3,13.1c2.2,3.9,5.1,7,8.8,9.2c3.7,2.2,7.9,3.4,12.5,3.4c4.9,0,9.2-1.1,13-3.4c3.8-2.2,6.8-5.3,9.1-9.2
			c2.3-3.9,3.5-8.3,3.5-13.1v-81h31.9v82.7c0,10.2-2.5,19.3-7.4,27.3c-4.9,7.9-11.7,14.2-20.4,18.7
			C1132.2,788.7,1122.3,791,1111.3,791z"/>
		<path class="st4" d="M1198.8,789.8v-27.4h22.6V683h-22.6v-27.4h78.1V683h-22.8v79.5h22.8v27.4H1198.8z"/>
		<path class="st4" d="M1290.9,789.8l53.2-134.3h27.6l52.8,134.3h-33l-25.3-68.1c-1-2.7-2-5.6-3.1-8.6c-1-3.1-2-6.2-3.1-9.5
			c-1-3.3-2-6.5-3-9.6c-1-3.1-1.8-6-2.4-8.7l5.8-0.2c-0.8,3.2-1.6,6.3-2.6,9.4c-1,3.1-1.9,6.1-2.9,9.1c-1,3-2,6-3.2,9
			c-1.2,3-2.2,6.1-3.3,9.3l-25.3,67.9H1290.9z M1316.3,764.1l10.2-24.6h61.8l10,24.6H1316.3z"/>
	</g>
	<g>
		<path class="st4" d="M791.8,961.8v-49.2h-25.6V911H820v1.6h-25.6v49.2H791.8z"/>
		<path class="st4" d="M818.8,961.8L851,911h4l32.3,50.8h-3.1L861,925.2c-0.2-0.3-0.7-1-1.3-1.9c-0.6-0.9-1.3-2.1-2.2-3.4
			c-0.8-1.4-1.7-2.8-2.7-4.2c-1-1.5-1.9-2.9-2.8-4.2l1.3,0.1c-0.5,0.9-1.1,2-2,3.3c-0.8,1.4-1.7,2.7-2.6,4.2
			c-0.9,1.4-1.7,2.7-2.5,3.9c-0.7,1.2-1.2,2-1.6,2.5l-22.9,36.5H818.8z M830.8,945.1l1-1.7h42.8l1,1.7H830.8z"/>
		<path class="st4" d="M902.9,961.8V911h2.6v49.2h42.1v1.6H902.9z"/>
		<path class="st4" d="M966.8,961.8V911h2.6v49.2h42.1v1.6H966.8z"/>
		<path class="st4" d="M1030.8,961.8V911h46.9v1.6h-44.3v47.6h43.6v1.6H1030.8z M1032.4,936.3v-1.6h38.4v1.6H1032.4z"/>
		<path class="st4" d="M1098.7,961.8V911h30.1c4.4,0,8.3,0.6,11.6,1.8c3.3,1.2,5.9,2.8,7.7,4.9c1.8,2.1,2.8,4.5,2.8,7.3
			c0,3.1-0.9,5.8-2.8,8.2c-1.8,2.3-4.4,4.2-7.7,5.5c-3.3,1.3-7.2,2-11.6,2h-27.5v21.1H1098.7z M1101.4,939.1h28.2
			c3.8,0,7-0.6,9.8-1.8c2.8-1.2,4.9-2.8,6.5-5c1.6-2.1,2.3-4.6,2.3-7.3c0-2.4-0.8-4.6-2.3-6.4c-1.6-1.9-3.7-3.3-6.5-4.4
			c-2.8-1.1-6-1.6-9.8-1.6h-28.2V939.1z M1150.7,961.8l-21-21.6l2.8-0.5l21.4,22.2H1150.7z"/>
	</g>
	<g>
		<g>
			<path class="st4" d="M589.3,573.6l151.9-383.9h79L971,573.6h-94.3L804.3,379c-2.9-7.7-5.9-15.9-8.8-24.7
				c-2.9-8.8-5.9-17.8-8.8-27.1c-2.9-9.3-5.8-18.5-8.5-27.4c-2.7-9-5-17.3-6.9-25l16.5-0.5c-2.2,9.1-4.7,18.1-7.4,26.9
				c-2.7,8.8-5.5,17.5-8.2,26c-2.7,8.6-5.8,17.2-9.1,25.8c-3.3,8.6-6.4,17.5-9.3,26.6l-72.4,194.1H589.3z M661.7,500.2l29.1-70.2
				h176.6l28.5,70.2H661.7z"/>
		</g>
		<g>
			<g>
				<path class="st5" d="M949,573.6l151.9-383.9h79l150.8,383.9h-94.3L1164,379c-2.9-7.7-5.9-15.9-8.8-24.7
					c-2.9-8.8-5.9-17.8-8.8-27.1c-2.9-9.3-5.8-18.5-8.5-27.4c-2.7-9-5-17.3-6.9-25l16.5-0.5c-2.2,9.1-4.7,18.1-7.4,26.9
					c-2.7,8.8-5.5,17.5-8.2,26c-2.7,8.6-5.8,17.2-9.1,25.8c-3.3,8.6-6.4,17.5-9.3,26.6l-72.4,194.1H949z M1021.4,500.2l29.1-70.2
					H1227l28.5,70.2H1021.4z"/>
			</g>
		</g>
	</g>
</g>
</svg>
