<?xml version="1.0" encoding="utf-8"?>
<!-- Generator: Adobe Illustrator 23.0.5, SVG Export Plug-In . SVG Version: 6.00 Build 0)  -->
<svg version="1.1" id="Layer_1" xmlns="http://www.w3.org/2000/svg" xmlns:xlink="http://www.w3.org/1999/xlink" x="0px" y="0px"
	 viewBox="0 0 4000 4000" style="enable-background:new 0 0 4000 4000;" xml:space="preserve">
<style type="text/css">
	.st0{fill:#231916;}
	.st1{fill-rule:evenodd;clip-rule:evenodd;fill:#0067AF;}
	.st2{fill-rule:evenodd;clip-rule:evenodd;fill:#6E248C;}
	.st3{fill-rule:evenodd;clip-rule:evenodd;fill:#D93C78;}
	.st4{fill-rule:evenodd;clip-rule:evenodd;fill:#F8B22F;}
	.st5{fill-rule:evenodd;clip-rule:evenodd;fill:#D75C2A;}
	.st6{fill-rule:evenodd;clip-rule:evenodd;fill:#B91C58;}
	.st7{fill-rule:evenodd;clip-rule:evenodd;fill:#4E046D;}
	.st8{fill-rule:evenodd;clip-rule:evenodd;fill:#003780;}
	.st9{fill-rule:evenodd;clip-rule:evenodd;fill:#1296DF;}
	.st10{fill-rule:evenodd;clip-rule:evenodd;fill:#47EADF;}
	.st11{fill-rule:evenodd;clip-rule:evenodd;fill:#FCE2A6;}
	.st12{fill-rule:evenodd;clip-rule:evenodd;fill:#FF8BC7;}
	.st13{fill-rule:evenodd;clip-rule:evenodd;fill:#CD9FE3;}
	.st14{fill-rule:evenodd;clip-rule:evenodd;fill:#51F4E9;}
</style>
<g>
	<path class="st0" d="M1514.8,1891.2c84.7,56.2,150,45.1,184.2,31.4c-31.2-16.5-60.2-29-89.9-35
		C1580.1,1881.8,1549.8,1882.2,1514.8,1891.2 M1714.2,1695.4c-8.1-81.4-24.2-181-54.7-292.5c-99.6,104.9-18.5,203.5,49.6,286.3
		L1714.2,1695.4z M1295.3,2012.8L1295.3,2012.8L1295.3,2012.8L1295.3,2012.8z M1583.2,1962.4c-23.8-6.5-49.3-17.1-76.2-33.5l0,0
		c0,0-106.7,10.3-158.8,92.5c3.7-21.7,17.5-50.1,36.2-76.2l60.2-59.1l-28-45.3c7.4-4.5,14.8-8.8,22.2-13l53,32.3l0,0
		c46.5-14.3,86.3-15.6,124.6-7.9c35.4,7.1,68.6,21.7,104.2,40.8c1.3-26.9,2.3-72.6-1.2-133c-11.4-15.7-24.4-31.5-37.9-47.9
		c-82.6-100.4-181.9-221.2-24.4-356.4l21.2-18.2l7.8,26.8c42.4,145.5,60.5,273.2,67.6,369.8l3.4,64.5c1.7,55.9-0.3,95.4-1.6,113.9h0
		l-0.5,27.5c0,0-122.3,100.5-265.1,58.1C1489.7,1998.1,1557,1979.9,1583.2,1962.4z"/>
	<path class="st0" d="M1620.8,1631.4l-64.8-69.6c-3,46.6,5.4,130.6,183.4,209.6l-7.3,63.4c-272.4-121-207.5-295.5-207.3-296
		l12.7-32.6l105.8,97.1L1620.8,1631.4z"/>
	<path class="st1" d="M1609.1,1887.6c-29-5.8-59.3-5.5-94.3,3.6c84.7,56.2,150,45.1,184.2,31.4c-11.3-5.9-22.2-11.4-33-16.2
		c-5.6-2.1-11-4.4-16.2-6.7C1636.2,1894.5,1622.7,1890.4,1609.1,1887.6"/>
	<path class="st2" d="M1602.5,1811.6c28.1,25.6,69.1,51.9,118.4,71.3c0.5-14.1,0.9-31.8,0.7-52.9c-23.5-10.9-44.4-22.2-62.9-33.8
		l-95.5-37.9C1567.7,1773.6,1581.5,1792.4,1602.5,1811.6"/>
	<path class="st1" d="M1572.8,1847.6c-7.2-7.1-13.6-14.4-19.3-21.7c-18.8-24-30-48.2-36.6-67.9c-51-25.3-92.8-51-127-76.5l-78-28.2
		c1.1,38.2,34.3,110.7,204.1,186.2c7.5,3.4,15.3,6.7,23.4,10.1C1550.8,1848.2,1561.9,1847.5,1572.8,1847.6"/>
	<path class="st2" d="M1300.8,1418.4c-13.3,48-24.5,148,204.9,271.9l0,0l59.6,24.9c-34.7-44.4-45.4-87-47.1-119.2
		c-17.5-13.2-33.9-26.5-49-39.7L1300.8,1418.4z"/>
	<path class="st3" d="M1556,1561.7c-2.9,44.6,4.8,123.6,161.9,199.7l1.4-0.8c0-0.2,0-0.3,0-0.5c-11.4-15.7-24.4-31.5-37.9-47.9
		c-22.3-27.1-45.8-55.7-65.2-85.7L1556,1561.7z"/>
	<path class="st4" d="M1616.1,1478.3c-17.4,76.6,41.5,148.3,93,210.9l5.1,6.2c-8.1-81.4-24.2-181-54.7-292.5
		C1635.2,1428.5,1621.7,1453.7,1616.1,1478.3"/>
	<path class="st3" d="M1535.7,1510.9c-77.6-94.1-123.2-187.6-147.3-276.2l-52.3-62c-16.5,71.8-37.8,170.9,189.5,363.9L1535.7,1510.9
		z"/>
	<path class="st4" d="M1490.9,765.4c-56.1,100.5-173,365.7,95.4,679.7c11.5-26.6,31.4-53.9,62.1-81.9L1490.9,765.4z"/>
	<path class="st0" d="M1658.7,1796.2l-95.5-37.9c10.7,36.5,74.5,93.3,164.3,127.1l0.2,19.9l-60.1,1.7
		c-153.1-57.8-160.3-192.3-160.3-192.7l-1.6-24.1l122.2,51.1L1658.7,1796.2z"/>
	<path class="st0" d="M1391.3,1682.1l-79.4-28.8c1.2,41.2,39.8,122.3,247,204.2l-43.5,30.2c-305.8-120.9-255.7-281.2-255.6-281.6
		l5.8-19.9l140.6,63.1L1391.3,1682.1z"/>
	<path class="st0" d="M1469.1,1556.2l-168.3-137.8c-14.1,51-25.9,160.4,249.6,294.8l-26.7,48.2
		c-379.5-185.1-263.5-393.2-263.2-393.8l10-18.7l128.2,97.8L1469.1,1556.2z"/>
	<path class="st0" d="M1430.6,1284.7l-94.4-112c-17.2,74.8-39.6,179.4,219.8,389l-18.9,48.1c-369.5-266.3-239.6-533.3-239.3-534.1
		l11.7-28.2l110.4,138.1L1430.6,1284.7z"/>
	<path class="st0" d="M1651.2,1373.7l-160.3-608.4c-58.1,104.1-181.3,384.5,125.1,713l-30.8,88.1
		c-424.7-441.4-101.6-890.3-100.7-891.5l22.8-32.2l179,722.3L1651.2,1373.7z"/>
	<path class="st5" d="M1648.5,1363.2c-195-12.5-199.1-507.5-199.1-507.5c-47.5,130.7-71.6,345.3,137,589.4
		C1597.9,1418.5,1617.7,1391.2,1648.5,1363.2"/>
	<path class="st6" d="M1535.7,1510.9c-77.6-94.1-123.2-187.6-147.3-276.2c0,0,46.3,181.4,78.5,230.1c0,0-55-39-60.6-45.9
		c28.9,34.9,67.7,73.9,119.3,117.7L1535.7,1510.9z"/>
	<path class="st7" d="M1518.2,1595.9c-17.5-13.2-33.9-26.5-49-39.7l-97.5-79.9l118.6,118.9c0,0-7.1,35.1,14.9,70.7l-116.8-52.3
		c29.5,24.2,67.8,49.9,117.4,76.6l0,0l59.6,24.9C1530.5,1670.7,1519.9,1628.1,1518.2,1595.9"/>
	<path class="st8" d="M1516.9,1758.1c-51-25.3-92.8-51-127-76.5l-28.2-10.2c0,0,110.4,120.7,177.7,178.3c11.4-1.5,22.5-2.1,33.4-2
		c-7.2-7.1-13.6-14.4-19.3-21.7C1534.7,1801.9,1523.5,1777.8,1516.9,1758.1"/>
	<path class="st5" d="M1707.2,1635.8c-66.9-46-81.1-185.9-81.1-185.9c-4.6,9.5-7.9,19-10,28.4c-17.4,76.6,41.5,148.3,93,210.9
		l5.1,6.2C1712.3,1676.5,1710,1656.6,1707.2,1635.8"/>
	<path class="st6" d="M1718.1,1761.3c-14.7-9.8-149.8-102.7-162.1-199.5c-2.9,44.6,4.8,123.6,161.9,199.7L1718.1,1761.3z"/>
	<path class="st7" d="M1721.6,1853.7c-33.2-15.2-65-33.4-91.3-49.8c-39.9-24.8-67.1-45.5-67.1-45.5c4.5,15.2,18.2,34,39.3,53.2
		c28.1,25.6,69.1,51.9,118.4,71.3C1721.3,1874.5,1721.5,1864.7,1721.6,1853.7"/>
	<path class="st8" d="M1666,1906.5c-5.6-2.1-11-4.4-16.2-6.7c0,0-61.9,28.1-135-8.6c84.7,56.2,150,45.1,184.2,31.4
		C1687.8,1916.7,1676.8,1911.2,1666,1906.5"/>
	<path class="st1" d="M1713.2,2638.7c-15.3-56.2-70.2-153.1-255.7-212.3c-0.2,0.4-0.3,0.7-0.5,1.1
		c93.9,56.2,156.4,119.3,197.9,179.2L1713.2,2638.7z"/>
	<path class="st2" d="M1691.5,2793.8c-13-73.6-64.7-198.6-239.6-309.2c74.4,79,130.3,159.4,172.3,236.8L1691.5,2793.8z"/>
	<path class="st3" d="M1707.3,3182.9c-0.6-112.7-41.7-369.1-276.2-629.4c116.2,230.3,169.8,400.5,192.8,520.8L1707.3,3182.9z"/>
	<path class="st4" d="M1599.1,3243.8c5.6-93.7-7.4-278.8-251.5-676.9C1369.4,2643.2,1467.4,2973.7,1599.1,3243.8"/>
	<path class="st9" d="M1397.8,2009.8c-70.5,118.7-112.1,245.8-46.1,457.5c31.3-26.2,54.4-96.1,71-180.5l6.7-33.8l26.3,22.1
		c140.9,118.9,395.5-338.9,433.1-383.3c19.1-22.6,41.5-44.7,65.9-63.7c-59.2,7-131.5,38.4-131.5,38.4
		c129.1-136.3,284.1-88.3,284.1-88.3c14.5,3.1,29,8.3,43.9,15.3c62.7,24.3,122.6,47.4,184.6,71.4l-214.3-127.3l-2.4-5.4
		c-0.4-0.9-132.6-305.1-466.9-18l-1.1,0.9l-1.6,1c-0.2,0.1-10.3,6.1-26.9,17.8l-13.2-21.1l-52.1,90.2c0,0-105.5,103-115.7,121.6
		c-3.1,5.7-12.4,18.2-24.2,33.3l11.9,0.4l0.9-0.2c-55.8,85.1-0.9-2.3,7.3,17.8l44.8,41.2c0,0-98.7,69.2-104.1,178.6
		C1362.3,2150.8,1368.8,2061.1,1397.8,2009.8"/>
	<path class="st0" d="M1343,2550.7c0.3,1.2,106.5,386.1,256.1,693.1c5.7-94.9-7.7-283.5-260.8-691.8l62.2-57.7
		c316.4,599.7,227.3,819.8,227,820.5l-16,42.3l-20.9-40.1c-166.1-317.7-286.4-754.2-286.8-755.5L1343,2550.7z"/>
	<path class="st0" d="M1621.6,3071.4l85.7,111.5c-0.6-120.3-47.4-404.5-326.5-682.2l42.9-44.9c372.9,371.2,321.7,784.8,321.6,786
		l-5.7,50L1589.4,3096L1621.6,3071.4z"/>
	<path class="st0" d="M1622.3,2719.5l69.1,74.3c-13.8-78.4-71.6-214.9-275-330.4l24.1-45.4c313.7,178.1,295.9,432.7,295.9,433.4
		l-2.7,47.6l-141.2-151.8L1622.3,2719.5z"/>
	<path class="st0" d="M1650.8,2604.5l62.4,34.2c-15.4-56.7-71.2-154.9-260.8-213.9l14.3-84.3c296.8,143.7,293,335.2,293,335.7
		l-0.1,34.2l-128.4-70.4L1650.8,2604.5z"/>
	<path class="st0" d="M1469.3,1975.7c114.1,8.1,171.9-39,197.7-71.3c-39.7,1.2-75.1,5-107.4,15.6
		C1528,1930.3,1498.5,1947.5,1469.3,1975.7 M1555.9,1673.5c-53.1-75.2-124-163.8-215.8-256c-39.3,157.9,94.8,209.5,207.3,252.8
		L1555.9,1673.5z M1429.5,1958.2c37.6-39.8,75.8-63.1,117.6-76.8c38.6-12.7,79.2-16.7,124.6-17.8c-13.6-27.1-38-72.4-75-129.6
		c-19.9-9-41.4-17.3-63.7-25.8c-136.5-52.5-300.8-115.7-221.5-335.4l10.7-29.6l22.5,21.9c122.2,118.9,210.7,233.9,271.2,324.5
		c5.4-3.5,9.2-5.9,11.1-7.1c347.7-297.6,505.1-15.8,526.6,27.7l320.6,226.4l-334.8-116.2c-31.1-14.6-65.7-10.9-99.5,3.3
		c-44.6,18.8-87.5,55.7-120.2,94.3c-98.9,117.1-242.9,547.5-448.4,471c-35.3,119.1-136.6,184-136.9,184.2l-21.7,14.1l-8.5-24.4
		c-89.4-256.6-33.5-460.2,55.5-606.8L1429.5,1958.2L1429.5,1958.2L1429.5,1958.2z M1575.7,2007.4c-26.8,6.9-57.7,10.6-93.2,9.5l0,0
		c0,0-98.7,69.2-104.1,178.6c-16.1-44.8-9.6-134.5,19.4-185.8c-70.5,118.7-112.1,245.8-46.1,457.5c31.3-26.2,54.4-96.1,71-180.5
		l6.7-33.8l26.3,22.1c140.9,118.9,395.5-338.9,433.1-383.3c19.1-22.6,41.5-44.7,65.9-63.7c-59.2,7-131.5,38.4-131.5,38.4
		c129.1-136.3,284.1-88.3,284.1-88.3v0c14.5,3.1,29,8.3,43.9,15.3l184.6,71.4l-214.3-127.3l-2.4-5.4c-0.4-0.9-132.6-305.1-466.9-18
		l-1.1,0.9l-1.6,1c-0.1,0.1-4.3,2.5-11.5,7.3c43,67.7,68.2,117.8,78.6,139.8h0l14.7,27.2c0,0-63.9,166.2-227.4,203.8
		C1504,2094.3,1559.8,2039.2,1575.7,2007.4z"/>
	<path class="st0" d="M1428.9,1662.6l-102-32.3c22.9,47.3,77.7,124.8,295.8,103.5l28,66.1c-333.8,32.6-366.9-174.2-367-174.8
		l-5.6-39l157.4,36.4L1428.9,1662.6z"/>
	<path class="st1" d="M1559.6,1919.9c-31.6,10.4-61.1,27.6-90.3,55.7c114.1,8.1,171.9-39,197.7-71.3c-14.3,0.4-28.1,1.2-41.3,2.5
		c-6.7,1-13.2,1.8-19.6,2.4C1589.9,1911.6,1574.5,1915.1,1559.6,1919.9"/>
	<path class="st2" d="M1511,1849.1c41.7,9.5,96.4,12.4,155.5,4.2c-7.3-14.1-16.8-31.6-28.6-52.2c-29.1,2.4-55.8,2.9-80.4,1.8
		l-114.5,15.9C1455.8,1831.2,1479.7,1842,1511,1849.1"/>
	<path class="st1" d="M1501.9,1900.9c-11-3-21.3-6.6-30.9-10.6c-31.7-13.1-56-30.6-73.4-46.1c-63.9,3.5-119.1,1.5-166.8-4.5
		l-92,15.6c22.3,36.8,95,89.3,303.1,69.2c9.2-0.9,18.7-1.9,28.5-3.1C1480.7,1913.6,1491.2,1906.8,1501.9,1900.9"/>
	<path class="st2" d="M997.6,1631.5c13.7,54.4,58.1,158.5,351.3,152.6l0,0l72.1-8.6c-58.6-24.2-92.7-60.1-112.2-90.6
		c-24.5-3.2-47.8-7.2-70-11.7L997.6,1631.5z"/>
	<path class="st3" d="M1326.9,1630.4c21.9,45.3,73.2,118.4,269.2,105.7l0.9-1.6c-0.1-0.2-0.2-0.3-0.3-0.5
		c-19.9-9-41.4-17.3-63.7-25.8c-36.9-14.2-75.8-29.1-111.3-47.8L1326.9,1630.4z"/>
	<path class="st4" d="M1339.5,1515.4c25.4,84.6,122.9,122.1,208,154.9l8.4,3.2c-53.1-75.2-124-163.8-215.8-256
		C1330.6,1456,1331.3,1488.1,1339.5,1515.4"/>
	<path class="st3" d="M1278.9,1591.8c-128.1-49.1-224.6-115.3-297.3-188.7l-85.5-31.7c23.7,79.4,57.8,188.3,387.3,251.2
		L1278.9,1591.8z"/>
	<path class="st4" d="M821.7,886.8c0.8,129.5,33.4,453.9,470.3,612.5c-3.5-32.4,0.8-70.2,15.4-114.6L821.7,886.8z"/>
	<path class="st0" d="M1557.5,1802.9l-114.5,15.9c30.7,29.8,124.7,50,231.3,33.4l11.2,19.4l-57.9,35
		c-181.9,28.4-263.6-99.4-263.8-99.8l-14.9-22.7l148-17.7L1557.5,1802.9z"/>
	<path class="st0" d="M1232.4,1839.5l-93.7,15.9c24,39.7,106.8,97.7,355,63l-25.8,53.6c-366.5,51.2-406.3-133.5-406.4-134l-5.4-22.7
		l172.6-16.2L1232.4,1839.5z"/>
	<path class="st0" d="M1238.8,1673.1l-241.2-41.6c14.5,57.7,63.6,171.4,407.9,150.2l0.6,62c-474.2,29.2-475.9-238.8-476-239.6
		l-0.6-23.8l179.7,24.6L1238.8,1673.1z"/>
	<path class="st0" d="M1050.5,1428.7L896,1371.4c24.7,82.8,60.7,197.6,430.9,258.9l8.1,57.6c-509.4-55.8-530.3-389.3-530.4-390.2
		l-4.2-34.1l184.7,74L1050.5,1428.7z"/>
	<path class="st0" d="M1315.9,1393.5L821.7,886.8c0.8,134.1,35.8,476.9,517.8,628.6l18.7,103.3c-660.5-196.6-593.1-815.3-593-816.9
		l4.5-44.1l575.7,607.8L1315.9,1393.5z"/>
	<path class="st1" d="M1668.3,2154.4c50.1-62.6,178.3-252.2,220.5-262.6c19.1-22.6,41.5-44.7,65.9-63.7
		c-59.2,7-131.5,38.4-131.5,38.4c129.1-136.3,284.1-88.3,284.1-88.3c14.5,3.1,29,8.3,43.9,15.3l184.6,71.4l-70.6-41.9l-63.7-37.9
		c-95-47-280.2-102.6-445.2,59.8l-76.6-52.1c18.4,32.5,30.5,56.8,36.9,70.3l14.7,27.2c0,0-63.9,166.2-227.4,203.8
		c0,0,55.8-55.1,71.7-86.8c-26.8,6.9-57.7,10.6-93.2,9.5c0,0-98.7,69.2-104.1,178.6c-16.1-44.8-9.6-134.5,19.4-185.8
		c-70.5,118.7-112.1,245.8-46.1,457.5c0,0,68.4-92.6,49.5-256.5c0,0,132.7,96.9,292.4-111.2
		C1693.6,2099.6,1685.2,2130.7,1668.3,2154.4"/>
	<path class="st10" d="M1835,1675.9c26.9,14.9,80.4,31.2,171.6,8.4c0,0,83-8,113.9,50.6l-1.2-2.7c-0.4-0.9-132.6-305.1-466.9-18
		l-1.1,0.9l-1.6,1c-0.1,0.1-4.3,2.5-11.5,7.3C1695.4,1690.9,1775,1642.7,1835,1675.9"/>
	<path class="st5" d="M1307.4,1384.8C1109.5,1480.6,831,998.3,831,998.3c26,154.2,121.3,377.7,460.9,501
		C1288.5,1466.9,1292.8,1429.1,1307.4,1384.8"/>
	<path class="st6" d="M1278.9,1591.8c-128.1-49.1-224.6-115.3-297.3-188.7c0,0,145.9,151.9,204.5,181.7c0,0-75.4-7.7-84.8-11.3
		c47.7,18.1,107.3,34.8,182.1,49.1L1278.9,1591.8z"/>
	<path class="st7" d="M1308.8,1684.8c-24.5-3.2-47.8-7.2-70-11.7l-139.8-24.1l182,50.6c0,0,12.5,38.4,53.8,61l-143.3,13.5
		c42.3,7.4,94.1,11.2,157.4,10l0,0l72.1-8.6C1362.4,1751.2,1328.4,1715.3,1308.8,1684.8"/>
	<path class="st8" d="M1397.5,1844.3c-63.9,3.5-119.1,1.5-166.8-4.5l-33.3,5.6c0,0,175,57,272.9,76c10.4-7.8,20.9-14.6,31.5-20.5
		c-11-3-21.3-6.6-30.9-10.6C1439.3,1877.3,1414.9,1859.8,1397.5,1844.3"/>
	<path class="st5" d="M1516,1619.1c-91-7.9-182.5-137.1-182.5-137.1c0.8,11.9,2.8,23,6,33.4c25.4,84.6,122.9,122.1,208,154.9
		l8.4,3.2C1543.6,1656.1,1530.3,1637.9,1516,1619.1"/>
	<path class="st6" d="M1596.3,1735.8c-19.9-1.5-203.5-17.5-269.3-105.4c21.9,45.3,73.2,118.4,269.2,105.7L1596.3,1735.8z"/>
	<path class="st7" d="M1651,1824.3c-40.9,3.5-82.2,3.3-117,1.9c-52.8-2.2-90.9-7.4-90.9-7.4c12.8,12.4,36.7,23.2,68,30.3
		c41.7,9.5,96.4,12.4,155.5,4.2C1662.1,1844.9,1657,1835.2,1651,1824.3"/>
	<path class="st8" d="M1625.7,1906.8c-6.7,1-13.2,1.8-19.6,2.4c0,0-45,61.8-136.9,66.5c114.1,8.1,171.9-39,197.7-71.3
		C1652.7,1904.8,1639,1905.5,1625.7,1906.8"/>
	<path class="st8" d="M1536.3,2482c51.7,40.9,90.2,83.6,118.7,124.7l58.3,32c-3-11.2-7.7-24-14.6-37.8
		C1635.4,2548.8,1536.3,2482,1536.3,2482"/>
	<path class="st7" d="M1579.4,2587.4c-32.8-34.4-74.5-69.3-127.6-102.9c72.8,77.3,128,156,169.6,231.9
		C1617.1,2701.8,1597.2,2635.4,1579.4,2587.4"/>
	<path class="st6" d="M1622.5,3067.2c13.4-73.5-32.9-244.5-63.1-344.1c-34.5-55.4-76.7-112.4-128.3-169.6
		C1545,2779.3,1598.8,2947.3,1622.5,3067.2"/>
	<path class="st5" d="M1564.5,3011.6c-33.8-106.9-97.9-250.5-217-444.6c10.1,35.4,36.7,125.6,75.4,239.2
		C1493.2,2900.2,1564.5,3011.6,1564.5,3011.6"/>
	<path class="st0" d="M3250,2381.8v-261.6h-48.9v261.6H3250z M3073.5,2166.1c31,0,44.8,21,44.8,42s-13.4,42-44.8,42h-75v-83.9
		H3073.5z M3180.6,2378.4l-79.1-89.2c49.6-10.1,66-46.3,66-82.3c0-45.3-32.5-86.4-94-86.7c-41.4,0.4-82.8,0-124.2,0v261.6h49.3
		v-87.3h47.4l76.1,87.3h58.6L3180.6,2378.4L3180.6,2378.4z M2816.4,2120.2c-41.4,0-82.8,0-123.9,0v261.6c41.4,0,82.5,0,123.9,0
		c54.1,0,97.8-18.7,97.8-76.9c0-16.4-11.2-48.9-41.8-58.2c24.3-10.8,34-30.3,34-50.6C2906.4,2143.4,2867.9,2120.2,2816.4,2120.2z
		 M2741.1,2165h75.4c31.3,0,41,20.3,41,32.3c0,15-10.1,28.2-41,28.2h-75.4V2165z M2741.1,2268.7h75.4c20.1,0,48.9,12.3,48.9,35.8
		c0,24.6-28.7,31.3-48.9,31.3h-75.4V2268.7z M2647.8,2381.8v-261.6h-48.9v261.6H2647.8z M2380.3,2120.2v261.6h183.6v-45.5h-134.3
		v-216H2380.3z M2210.1,2160.2c61.6,0,86.2,49.3,85.4,93.3c-0.7,42.9-23.9,89.2-85.4,89.2s-84.7-45.9-85.8-88.8
		C2123.2,2209.8,2148.6,2160.2,2210.1,2160.2z M2210.1,2115.4c-90.3,0-134.3,69-134.3,137.7c0,68.7,42.5,134.7,134.3,134.7
		s133.2-67.5,133.9-135.1C2344.8,2184.4,2300.1,2115.4,2210.1,2115.4z M2026.2,2315c-17.2,17.2-42.9,26.5-65.7,26.5
		c-64.5,0-89.5-45.1-89.9-88.4c-0.4-43.7,26.9-90.7,89.9-90.7c22.8,0,45.9,7.8,63.1,24.6l32.8-31.7c-26.9-26.5-60.4-39.9-95.9-39.9
		c-94.4,0-138.8,69.4-138.4,137.7c0.4,67.9,41.4,134.7,138.4,134.7c37.7,0,72.4-12.3,99.2-38.8L2026.2,2315z"/>
	<path class="st0" d="M3071.5,2482h13.5c14.3,0,20.3,10.3,20.6,20.5c0.3,10.7-5.6,21.7-20.6,21.7h-13.5V2482z M3085,2470.3
		c-8.1,0-17.8,0-25.8,0v65.9c8.1,0,17.8,0,25.8,0c23,0,33.2-16.8,32.9-33.5C3117.7,2486.3,3107.6,2470.3,3085,2470.3z
		 M2974.4,2481.8c7.8,0,11.3,5.3,11.3,10.6c0,5.3-3.4,10.6-11.3,10.6h-18.9v-21.1H2974.4z M3001.3,2535.3l-19.9-22.5
		c12.5-2.5,16.6-11.7,16.6-20.7c0-11.4-8.2-21.8-23.7-21.9c-10.4,0.1-20.9,0-31.3,0v65.9h12.4v-22h11.9l19.2,22h14.8V2535.3z
		 M2877.7,2536.1v-65.9h-12.3v65.9H2877.7z M2778.3,2470.3c-10.4,0-20.9,0-31.2,0v65.9c10.4,0,20.8,0,31.2,0
		c13.6,0,24.6-4.7,24.6-19.4c0-4.1-2.8-12.3-10.5-14.7c6.1-2.7,8.6-7.6,8.6-12.7C2800.9,2476.1,2791.3,2470.3,2778.3,2470.3z
		 M2759.3,2481.5h19c7.9,0,10.3,5.1,10.3,8.1c0,3.8-2.5,7.1-10.3,7.1h-19V2481.5z M2759.3,2507.7h19c5.1,0,12.3,3.1,12.3,9
		c0,6.2-7.2,7.9-12.3,7.9h-19V2507.7z M2665.3,2523.9h-36.9v-14.9h35.6v-11.6h-35.6v-15.2h36.9v-12H2616c0,22,0,44,0,65.9h49.3
		V2523.9z M2538.5,2536.1h12.4v-65.7h-14.2l-20.6,28.2l-20.6-28.2h-14.3v65.7h12.4v-47.8l21,28.6h2.4l21.4-28.5L2538.5,2536.1
		L2538.5,2536.1z M2384.7,2480.3c15.5,0,21.7,12.4,21.5,23.5c-0.2,10.8-6,22.5-21.5,22.5c-15.5,0-21.3-11.6-21.6-22.4
		C2362.8,2492.8,2369.2,2480.3,2384.7,2480.3z M2384.7,2469c-22.7,0-33.8,17.4-33.8,34.7c0,17.3,10.7,33.9,33.8,33.9
		c23.1,0,33.6-17,33.7-34C2418.6,2486.4,2407.4,2469,2384.7,2469z M2288.5,2481.2c-5-10.2-15.6-13.1-25.8-13.1
		c-12.1,0.1-25.5,5.6-25.5,19.2c0,14.8,12.4,18.3,25.8,19.9c8.7,0.9,15.2,3.5,15.2,9.7c0,7.1-7.3,9.9-15.1,9.9
		c-8,0-15.6-3.2-18.5-10.4l-10.3,5.4c4.9,12,15.2,16.2,28.7,16.2c14.7,0,27.6-6.3,27.6-21c0-15.7-12.8-19.3-26.5-21
		c-7.9-0.9-14.7-2.5-14.7-8.3c0-4.9,4.4-8.7,13.6-8.7c7.1,0,13.3,3.6,15.6,7.3L2288.5,2481.2z M2172.8,2523.9h-36.9v-14.9h35.6
		v-11.6h-35.6v-15.2h36.9v-12h-49.3c0,22,0,44,0,65.9h49.3V2523.9z M2062.5,2470.3h-13.9l-15,47.5l-16.4-47.5h-8.1l-16,47.5
		l-15.5-47.5h-13.9l24.2,65.9h10.5l8-20.5l6.9-21l7,20.8l8.2,20.7h10.5L2062.5,2470.3z M1894.2,2512.2h-24.4l12.2-28.1
		L1894.2,2512.2z M1904.8,2536.1h13.5l-29.5-65.9h-13.5l-29.5,65.9h13.4l5.6-12.4h34.4L1904.8,2536.1z"/>
	<path class="st11" d="M831,998.3l437.3,354.8l39,31.7l-29-29.8L821.7,886.8C821.8,915.6,823.6,954.1,831,998.3"/>
	<path class="st12" d="M973.3,1400l-77.2-28.6c18.3,61.4,42.8,140.4,205.2,202.1C1037.4,1536.2,973.3,1400,973.3,1400"/>
	<path class="st13" d="M1099.1,1649l-101.5-17.5c10.7,42.6,40.3,115.8,193.9,142.6c-109.8-39.4-143.1-113.1-143.1-113.1l64.8-8.1
		L1099.1,1649z"/>
	<path class="st14" d="M1184.7,1847.6l-46,7.8c20.8,34.4,85.6,82.5,263.8,72.2c12.5-0.7,25.6-1.7,39.3-3.1
		c9.2-0.9,18.7-1.9,28.5-3.1c-9.3,0.9-18.5,1.4-27.6,1.6c-11.8,0.3-23.4,0-34.8-0.8C1280.3,1913.9,1184.7,1847.6,1184.7,1847.6"/>
	<path class="st12" d="M1383.4,1228.7l-47.2-56c-12.7,55.5-28.4,127.3,70.2,246.2C1359.3,1359,1383.4,1228.7,1383.4,1228.7"/>
	<path class="st11" d="M1449.4,855.7l178.9,430.9l-137.3-521.3C1478.5,787.8,1462.9,818.3,1449.4,855.7"/>
	<path class="st10" d="M1536.3,2482c0,0,101.4,18.4,162.4,118.9c-27.8-55.5-92.6-127.1-241.1-174.5c-0.2,0.4-0.3,0.7-0.5,1.1
		C1486.4,2445.1,1512.7,2463.4,1536.3,2482"/>
	<path class="st11" d="M1595.5,3145.9c-43.2-46.9-135.6-235.5-135.6-235.5c39.2,107.3,86.5,225.2,139.3,333.4
		C1600.6,3218.6,1600.8,3186.7,1595.5,3145.9"/>
	<path class="st12" d="M1624.7,2844.4c25.1,89.8,39.8,282.7,39.8,282.7l42.8,55.8C1707,3113.6,1691.3,2989.9,1624.7,2844.4"/>
	<path class="st13" d="M1657.8,2757.6l33.7,36.2c-9-51.3-36.9-127.5-112.1-206.4C1620.7,2638.6,1657.8,2757.6,1657.8,2757.6"/>
	<path class="st10" d="M1795.3,2031.3c-210.6,272.4-314.8,242.3-365.9,221.7l26.3,22.1C1551,2355.5,1698.3,2172.2,1795.3,2031.3"/>
</g>
</svg>
