<?xml version="1.0" encoding="utf-8"?>
<!-- Generator: Adobe Illustrator 23.0.5, SVG Export Plug-In . SVG Version: 6.00 Build 0)  -->
<svg version="1.1" id="Capa_1" xmlns="http://www.w3.org/2000/svg" xmlns:xlink="http://www.w3.org/1999/xlink" x="0px" y="0px"
	 viewBox="0 0 1920 1080" style="enable-background:new 0 0 1920 1080;" xml:space="preserve">
<style type="text/css">
	.st0{fill:#FFF1EE;}
	.st1{fill:none;stroke:#E0BE41;stroke-width:4;stroke-miterlimit:10;}
	.st2{fill:#A65631;}
	.st3{fill:none;stroke:#E0BE41;stroke-width:13.2734;stroke-miterlimit:10;}
	.st4{fill:#F382A0;}
	.st5{fill:#FEFFFD;}
	.st6{fill:#FACCD7;}
	.st7{fill:#384B73;}
	.st8{fill:#FE7F94;}
</style>
<path class="st0" d="M1758.7,1033.3H161.3c-44.9,0-81.3-36.4-81.3-81.3V128c0-44.9,36.4-81.3,81.3-81.3h1597.3
	c44.9,0,81.3,36.4,81.3,81.3v824C1840,996.9,1803.6,1033.3,1758.7,1033.3z"/>
<g>
	<g>
		<g>
			<path class="st7" d="M501.4,918c-8.8,0-16.6-2.4-23.5-7.1c-6.9-4.7-12.3-11.3-16.2-19.6c-3.9-8.3-5.9-18-5.9-28.9
				c0-10.8,2-20.4,6-28.8c4-8.4,9.5-15,16.5-19.8c7-4.8,15-7.2,24.1-7.2c4.5,0,8.9,0.6,13,1.9c4.1,1.3,7.9,3.1,11.2,5.4
				c3.3,2.3,6.2,5.1,8.5,8.2c2.3,3.1,3.9,6.5,4.7,10.1l-9,2.8v-67.2h40.8v148H535l-3.2-23.6l8.2,1.8c-0.7,3.5-2.1,6.7-4.4,9.6
				c-2.3,2.9-5.1,5.5-8.5,7.6c-3.4,2.1-7.3,3.8-11.7,5C511,917.4,506.3,918,501.4,918z M513.6,885c3.9,0,7.2-0.9,9.9-2.7
				c2.7-1.8,4.8-4.4,6.2-7.7c1.4-3.3,2.1-7.4,2.1-12.2c0-4.8-0.7-8.9-2.1-12.3c-1.4-3.4-3.5-6-6.2-7.7c-2.7-1.7-6-2.6-9.9-2.6
				c-3.9,0-7.1,0.9-9.8,2.6c-2.7,1.7-4.7,4.3-6.1,7.7c-1.4,3.4-2.1,7.5-2.1,12.3c0,4.8,0.7,8.9,2.1,12.2c1.4,3.3,3.4,5.9,6.1,7.7
				C506.4,884.1,509.7,885,513.6,885z"/>
			<path class="st7" d="M649.8,917.8c-11.6,0-21.9-2.4-31-7.2c-9.1-4.8-16.2-11.4-21.4-19.7c-5.2-8.3-7.8-17.9-7.8-28.7
				c0-10.8,2.6-20.4,7.8-28.7c5.2-8.3,12.3-14.9,21.4-19.7c9.1-4.8,19.4-7.2,31-7.2s21.9,2.4,30.9,7.2c9,4.8,16.1,11.4,21.2,19.7
				c5.1,8.3,7.7,17.9,7.7,28.7c0,10.8-2.6,20.4-7.7,28.7c-5.1,8.3-12.2,14.9-21.2,19.7C671.7,915.4,661.4,917.8,649.8,917.8z
				 M649.8,883.8c3.6,0,6.8-0.9,9.7-2.8c2.9-1.9,5.1-4.4,6.7-7.7c1.6-3.3,2.4-7,2.4-11.1c0-4.3-0.8-8-2.4-11.3
				c-1.6-3.3-3.8-5.8-6.7-7.7c-2.9-1.9-6.1-2.8-9.7-2.8c-3.7,0-7,0.9-9.9,2.8c-2.9,1.9-5.1,4.4-6.8,7.7c-1.7,3.3-2.5,7-2.5,11.3
				c0,4.1,0.8,7.8,2.5,11.1c1.7,3.3,3.9,5.8,6.8,7.7C642.7,882.9,646,883.8,649.8,883.8z"/>
			<path class="st7" d="M779.4,961.8c-9.6,0-19.1-1.3-28.5-4c-9.4-2.7-17.1-6.1-23.1-10.4l13.8-27.2c2.9,1.9,6,3.5,9.2,4.8
				c3.2,1.3,6.6,2.3,10.1,3c3.5,0.7,7.3,1,11.3,1c6.3,0,11.3-0.8,15.2-2.5c3.9-1.7,6.7-4.3,8.5-7.9c1.8-3.6,2.7-8.2,2.7-13.8v-16
				l9,0.8c-1.1,4.5-3.4,8.5-7,12c-3.6,3.5-8.1,6.2-13.4,8.2c-5.3,2-11,3-17,3c-9.5,0-17.8-2.1-25.1-6.4c-7.3-4.3-13-10.2-17.2-17.9
				c-4.2-7.7-6.3-16.7-6.3-27.1c0-10.8,2.1-20.3,6.2-28.5c4.1-8.2,9.8-14.6,16.9-19.3c7.1-4.7,15.3-7,24.5-7c4,0,7.8,0.4,11.4,1.2
				c3.6,0.8,6.9,1.9,10,3.3c3.1,1.4,5.8,3.1,8.2,5.1c2.4,2,4.4,4.2,5.9,6.6c1.5,2.4,2.6,5,3.1,7.8l-8.2,1.8l2.2-23.6h37.6v96.6
				c0,8.9-1.4,16.9-4.1,23.9c-2.7,7-6.7,12.9-11.9,17.8c-5.2,4.9-11.5,8.5-18.9,11C797.1,960.6,788.7,961.8,779.4,961.8z
				 M780.4,883.8c4.1,0,7.6-0.9,10.5-2.6c2.9-1.7,5-4.2,6.5-7.5c1.5-3.3,2.2-7.2,2.2-11.9c0-4.7-0.7-8.7-2.2-12
				c-1.5-3.3-3.6-5.9-6.5-7.6c-2.9-1.7-6.4-2.6-10.5-2.6c-4.1,0-7.6,0.9-10.4,2.6c-2.8,1.7-4.9,4.3-6.4,7.6c-1.5,3.3-2.2,7.3-2.2,12
				c0,4.7,0.7,8.6,2.2,11.9c1.5,3.3,3.6,5.8,6.4,7.5C772.8,882.9,776.2,883.8,780.4,883.8z"/>
			<path class="st7" d="M916.2,961.8c-9.6,0-19.1-1.3-28.5-4c-9.4-2.7-17.1-6.1-23.1-10.4l13.8-27.2c2.9,1.9,6,3.5,9.2,4.8
				c3.2,1.3,6.6,2.3,10.1,3c3.5,0.7,7.3,1,11.3,1c6.3,0,11.3-0.8,15.2-2.5c3.9-1.7,6.7-4.3,8.5-7.9c1.8-3.6,2.7-8.2,2.7-13.8v-16
				l9,0.8c-1.1,4.5-3.4,8.5-7,12c-3.6,3.5-8.1,6.2-13.4,8.2c-5.3,2-11,3-17,3c-9.5,0-17.8-2.1-25.1-6.4c-7.3-4.3-13-10.2-17.2-17.9
				c-4.2-7.7-6.3-16.7-6.3-27.1c0-10.8,2.1-20.3,6.2-28.5c4.1-8.2,9.8-14.6,16.9-19.3c7.1-4.7,15.3-7,24.5-7c4,0,7.8,0.4,11.4,1.2
				c3.6,0.8,6.9,1.9,10,3.3c3.1,1.4,5.8,3.1,8.2,5.1c2.4,2,4.4,4.2,5.9,6.6c1.5,2.4,2.6,5,3.1,7.8l-8.2,1.8l2.2-23.6h37.6v96.6
				c0,8.9-1.4,16.9-4.1,23.9c-2.7,7-6.7,12.9-11.9,17.8c-5.2,4.9-11.5,8.5-18.9,11C933.9,960.6,925.5,961.8,916.2,961.8z
				 M917.2,883.8c4.1,0,7.6-0.9,10.5-2.6c2.9-1.7,5-4.2,6.5-7.5c1.5-3.3,2.2-7.2,2.2-11.9c0-4.7-0.7-8.7-2.2-12
				c-1.5-3.3-3.6-5.9-6.5-7.6c-2.9-1.7-6.4-2.6-10.5-2.6c-4.1,0-7.6,0.9-10.4,2.6c-2.8,1.7-4.9,4.3-6.4,7.6c-1.5,3.3-2.2,7.3-2.2,12
				c0,4.7,0.7,8.6,2.2,11.9c1.5,3.3,3.6,5.8,6.4,7.5C909.6,882.9,913.1,883.8,917.2,883.8z"/>
			<path class="st7" d="M1055.4,917.8c-11.6,0-21.9-2.4-31-7.2c-9.1-4.8-16.2-11.4-21.4-19.7c-5.2-8.3-7.8-17.9-7.8-28.7
				c0-10.8,2.6-20.4,7.8-28.7c5.2-8.3,12.3-14.9,21.4-19.7c9.1-4.8,19.4-7.2,31-7.2s21.9,2.4,30.9,7.2c9,4.8,16.1,11.4,21.2,19.7
				c5.1,8.3,7.7,17.9,7.7,28.7c0,10.8-2.6,20.4-7.7,28.7c-5.1,8.3-12.2,14.9-21.2,19.7C1077.3,915.4,1067,917.8,1055.4,917.8z
				 M1055.4,883.8c3.6,0,6.8-0.9,9.7-2.8c2.9-1.9,5.1-4.4,6.7-7.7c1.6-3.3,2.4-7,2.4-11.1c0-4.3-0.8-8-2.4-11.3
				c-1.6-3.3-3.8-5.8-6.7-7.7c-2.9-1.9-6.1-2.8-9.7-2.8c-3.7,0-7,0.9-9.9,2.8c-2.9,1.9-5.1,4.4-6.8,7.7c-1.7,3.3-2.5,7-2.5,11.3
				c0,4.1,0.8,7.8,2.5,11.1c1.7,3.3,3.9,5.8,6.8,7.7C1048.4,882.9,1051.7,883.8,1055.4,883.8z"/>
			<path class="st7" d="M1135.2,915.8v-148h40.6v148H1135.2z M1175,885.8l-20-25.2l49.4-51.8h52.8L1175,885.8z M1208,915.8
				l-35.6-50.2l28.4-20.4l53.6,70.6H1208z"/>
			<path class="st7" d="M1302.8,917.6c-8.9,0-16.9-2.4-23.8-7.1c-6.9-4.7-12.4-11.3-16.4-19.6c-4-8.3-6-17.9-6-28.7
				c0-10.9,2-20.6,5.9-28.9c3.9-8.3,9.4-14.9,16.4-19.6c7-4.7,15.1-7.1,24.3-7.1c4.8,0,9.2,0.7,13.2,2c4,1.3,7.5,3.2,10.6,5.6
				c3.1,2.4,5.7,5.2,8,8.3c2.3,3.1,4.2,6.5,5.8,10.1l-8.2-0.2v-23.6h39.8v107h-40.8v-26.2l9,0.8c-1.3,3.9-3.2,7.5-5.5,10.8
				c-2.3,3.3-5.1,6.2-8.3,8.6c-3.2,2.4-6.8,4.3-10.8,5.7C1312,916.9,1307.6,917.6,1302.8,917.6z M1314.4,884.6
				c3.9,0,7.2-0.9,9.9-2.6c2.7-1.7,4.8-4.3,6.2-7.6c1.4-3.3,2.1-7.4,2.1-12.2s-0.7-8.9-2.1-12.3c-1.4-3.4-3.5-6-6.2-7.7
				c-2.7-1.7-6-2.6-9.9-2.6c-3.9,0-7.1,0.9-9.8,2.6c-2.7,1.7-4.7,4.3-6.1,7.7s-2.1,7.5-2.1,12.3s0.7,8.9,2.1,12.2
				c1.4,3.3,3.4,5.9,6.1,7.6C1307.3,883.7,1310.6,884.6,1314.4,884.6z"/>
			<path class="st7" d="M1389.4,842.8v-34h74.8v34H1389.4z M1406,915.8v-134h40.6v134H1406z"/>
		</g>
	</g>
	<path class="st8" d="M683.7,651.5l50.4-31.4c0,0,301.5,0,335.1,7.8c33.6,7.8,78.4,12.3,86.3,14.6c7.8,2.2-9,30.9-60.6,25.3
		C1031.7,660.9,961.6,635.9,683.7,651.5z"/>
	<path class="st8" d="M1142.1,222.3c0,0-26.9-31.4-37-32.5c-10.1-1.1-261.9,14-392.2,9c-29.1-1.1-13.4,25.8,28,23.5
		C782.3,220.1,915.7,235.8,1142.1,222.3z"/>
	<path class="st8" d="M690.4,428.5c0,0,10.1,15.7,35.9,14.6c25.8-1.1,359.9-21.4,409.2-32.6c49.3-11.2-31.5-29.1-64-16.7
		C1039,406.1,727.4,409.5,690.4,428.5z"/>
</g>
</svg>
