<?xml version="1.0" encoding="utf-8"?>
<!-- Generator: Adobe Illustrator 23.0.5, SVG Export Plug-In . SVG Version: 6.00 Build 0)  -->
<svg version="1.1" id="Capa_1" xmlns="http://www.w3.org/2000/svg" xmlns:xlink="http://www.w3.org/1999/xlink" x="0px" y="0px"
	 viewBox="0 0 1920 1080" style="enable-background:new 0 0 1920 1080;" xml:space="preserve">
<g>
	<g>
		<path d="M149.4,431.9h-0.7c0-4.3-1.6-8-4.7-11.1c-3.2-3.1-6.9-4.6-11.2-4.6h-3l-0.2-2.5h20V431.9z M149.4,570.2v18.2h-20v-2.5h3.2
			c4.3,0,8-1.5,11.1-4.6c3.1-3.1,4.7-6.8,4.9-11.1H149.4z M164.9,413.7v174.8h-16.2V413.7H164.9z M232.3,413.7v7.7h-68.2v-7.7H232.3
			z M221.6,498.5v7.5h-57.4v-7.5H221.6z M232.3,580.7v7.7h-68.2v-7.7H232.3z M247.5,548l-14.5,40.4h-41.4l9-7.7
			c8.8,0,16-1.4,21.6-4.1c5.6-2.7,10.1-6.6,13.6-11.6c3.5-5,6.6-10.6,9.2-17H247.5z M232.3,409.2v7.2l-30.5-2.7
			c3.7,0,7.5-0.2,11.6-0.7c4.1-0.5,7.9-1.1,11.4-1.7C228.3,410.5,230.8,409.8,232.3,409.2z M221.6,482.6V499h-14.5v-0.5
			c3.3-0.2,6.2-1.5,8.5-3.9c2.3-2.4,3.5-5.3,3.5-8.6v-3.5H221.6z M221.6,505.5V522h-2.5v-3.7c0-3.3-1.2-6.2-3.5-8.6
			c-2.3-2.4-5.2-3.6-8.5-3.6v-0.5H221.6z M232.3,420.7v20h-2.5v-4.5c0-4-1.4-7.4-4.2-10.4c-2.8-2.9-6.3-4.5-10.5-4.6v-0.5H232.3z"/>
		<path d="M430.8,515.5l-3,39.2c-4.3,7.2-9.8,13.5-16.4,19.1c-6.6,5.6-14.3,10-23.2,13.2c-8.9,3.2-19.1,4.9-30.6,4.9
			c-17.3-0.2-32.7-4-46.2-11.5c-13.5-7.5-24-18-31.6-31.6c-7.6-13.6-11.4-29.6-11.4-48.1c0-18.1,3.7-34,11.2-47.6
			c7.5-13.6,18-24.1,31.6-31.7c13.6-7.6,29.5-11.4,47.8-11.4c12.3,0,23.4,1.6,33.3,4.9c9.9,3.2,18.5,7.3,25.8,12.1l5,35.2h-2.2
			c-3.7-14.6-11.2-25.8-22.5-33.3c-11.3-7.6-24.5-11.4-39.4-11.4c-14.6,0-27.3,3.5-38.1,10.4c-10.7,6.9-19.1,16.6-25,29
			c-5.9,12.4-8.9,26.9-8.9,43.6c0,16.6,3,31.2,8.9,43.7c5.9,12.5,14.1,22.2,24.7,29.2c10.6,7,22.8,10.7,36.8,11
			c11.8,0,22.8-2.2,32.8-6.6c10.1-4.4,18.5-11.7,25.3-21.7c6.8-10.1,11.1-23.6,13-40.6H430.8z"/>
		<path d="M550.4,410.2c17.8,0,33.5,3.8,46.9,11.4c13.5,7.6,24,18.2,31.6,31.8c7.6,13.6,11.4,29.5,11.4,47.7
			c0,18.1-3.8,34-11.4,47.7c-7.6,13.6-18.1,24.3-31.6,31.8c-13.5,7.6-29.1,11.4-46.9,11.4c-17.6,0-33.2-3.8-46.7-11.4
			c-13.5-7.6-24-18.2-31.6-31.8c-7.6-13.6-11.4-29.5-11.4-47.7c0-18.1,3.8-34,11.4-47.7c7.6-13.6,18.1-24.3,31.6-31.8
			C517.2,414,532.7,410.2,550.4,410.2z M550.4,584.4c14.1,0,26.5-3.5,37.1-10.5c10.6-7,18.8-16.7,24.7-29.2
			c5.9-12.5,8.9-27,8.9-43.7c0-16.6-3-31.2-8.9-43.7c-5.9-12.5-14.1-22.2-24.7-29.2c-10.6-7-22.9-10.5-37.1-10.5
			c-14,0-26.3,3.5-36.8,10.5c-10.6,7-18.8,16.7-24.7,29.2c-5.9,12.5-8.9,27-8.9,43.7c0,16.6,3,31.2,8.9,43.7
			c5.9,12.5,14.1,22.2,24.7,29.2C524.1,580.9,536.4,584.4,550.4,584.4z"/>
		<path d="M829.8,515.5l-3,39.2c-4.3,7.2-9.8,13.5-16.4,19.1c-6.6,5.6-14.3,10-23.2,13.2c-8.9,3.2-19.1,4.9-30.6,4.9
			c-17.3-0.2-32.7-4-46.2-11.5c-13.5-7.5-24-18-31.6-31.6c-7.6-13.6-11.4-29.6-11.4-48.1c0-18.1,3.7-34,11.2-47.6
			c7.5-13.6,18-24.1,31.6-31.7c13.6-7.6,29.5-11.4,47.8-11.4c12.3,0,23.4,1.6,33.3,4.9c9.9,3.2,18.5,7.3,25.8,12.1l5,35.2H820
			c-3.7-14.6-11.2-25.8-22.5-33.3c-11.3-7.6-24.5-11.4-39.4-11.4c-14.6,0-27.3,3.5-38.1,10.4c-10.7,6.9-19.1,16.6-25,29
			c-5.9,12.4-8.9,26.9-8.9,43.6c0,16.6,3,31.2,8.9,43.7c5.9,12.5,14.1,22.2,24.7,29.2c10.6,7,22.8,10.7,36.8,11
			c11.8,0,22.8-2.2,32.8-6.6c10.1-4.4,18.5-11.7,25.3-21.7c6.8-10.1,11.1-23.6,13-40.6H829.8z"/>
		<path d="M877.2,431.9h-0.7c-0.2-4.3-1.8-8-4.9-11.1c-3.1-3.1-6.8-4.6-11.1-4.6h-3.2v-2.5h20V431.9z M877.2,570.2v18.2h-20v-2.5
			h3.2c4.3,0,8-1.5,11.1-4.6c3.1-3.1,4.7-6.8,4.9-11.1H877.2z M892.7,413.7v174.8h-16.2V413.7H892.7z M891.9,431.9v-18.2h20v2.5
			c-0.2,0-1.2,0-3.2,0c-4.3,0-8,1.5-11.1,4.6c-3.1,3.1-4.7,6.8-4.9,11.1H891.9z M960.1,580.7v7.7h-68.2v-7.7H960.1z M975.3,548
			l-14.5,40.4h-41.4l9-7.7c8.8,0,16-1.4,21.6-4.1c5.6-2.7,10.1-6.6,13.6-11.6c3.5-5,6.6-10.6,9.2-17H975.3z"/>
		<path d="M1084.7,410.2c17.8,0,33.5,3.8,46.9,11.4c13.5,7.6,24,18.2,31.6,31.8c7.6,13.6,11.4,29.5,11.4,47.7
			c0,18.1-3.8,34-11.4,47.7c-7.6,13.6-18.1,24.3-31.6,31.8c-13.5,7.6-29.1,11.4-46.9,11.4c-17.6,0-33.2-3.8-46.7-11.4
			c-13.5-7.6-24-18.2-31.6-31.8c-7.6-13.6-11.4-29.5-11.4-47.7c0-18.1,3.8-34,11.4-47.7c7.6-13.6,18.1-24.3,31.6-31.8
			C1051.5,414,1067,410.2,1084.7,410.2z M1084.7,584.4c14.1,0,26.5-3.5,37.1-10.5c10.6-7,18.8-16.7,24.7-29.2
			c5.9-12.5,8.9-27,8.9-43.7c0-16.6-3-31.2-8.9-43.7c-5.9-12.5-14.1-22.2-24.7-29.2c-10.6-7-22.9-10.5-37.1-10.5
			c-14,0-26.3,3.5-36.8,10.5c-10.6,7-18.8,16.7-24.7,29.2c-5.9,12.5-8.9,27-8.9,43.7c0,16.6,3,31.2,8.9,43.7
			c5.9,12.5,14.1,22.2,24.7,29.2C1058.4,580.9,1070.7,584.4,1084.7,584.4z"/>
		<path d="M1185.5,408.9c1.7,0.7,4.2,1.3,7.6,2c3.4,0.7,7.2,1.2,11.4,1.7c4.2,0.5,8,0.7,11.5,0.7l-30.5,2.7V408.9z M1330.1,413.4
			v7.5h-144.6v-7.5H1330.1z M1202.8,420.2v0.7c-4.2,0.2-7.7,1.7-10.5,4.5c-2.8,2.8-4.2,6.3-4.2,10.5v4.2l-2.5,0.2v-20.2H1202.8z
			 M1250.4,570.2v18.2h-20v-2.5h3.2c4.3,0,8-1.5,11.1-4.6c3.1-3.1,4.7-6.8,4.9-11.1H1250.4z M1265.9,414.4v174h-16.2v-174H1265.9z
			 M1265.2,570.2h0.7c0.2,4.3,1.8,8,4.9,11.1c3.1,3.1,6.8,4.6,11.1,4.6h3.2v2.5h-20V570.2z M1330.1,408.9v7.2l-30.5-2.7
			c3.7,0,7.5-0.2,11.6-0.7c4.1-0.5,7.9-1.1,11.4-1.7C1326.1,410.3,1328.6,409.6,1330.1,408.9z M1330.1,420.2v20.2l-2.5-0.2v-4.2
			c0-4.2-1.5-7.7-4.4-10.5c-2.9-2.8-6.4-4.3-10.4-4.5v-0.7H1330.1z"/>
		<path d="M1369.8,431.9h-0.7c-0.2-4.3-1.8-8-4.9-11.1c-3.1-3.1-6.8-4.6-11.1-4.6h-3.2v-2.5h20V431.9z M1369.8,570.2v18.2h-20v-2.5
			h3.2c4.3,0,8-1.5,11.1-4.6c3.1-3.1,4.7-6.8,4.9-11.1H1369.8z M1385.3,413.7v174.8H1369V413.7H1385.3z M1489.6,498.3v7.5h-106.9
			v-7.5H1489.6z M1384.5,431.9v-18.2h20v2.5c-0.2,0-1.2,0-3.2,0c-4.3,0-8,1.5-11.1,4.6c-3.1,3.1-4.7,6.8-4.9,11.1H1384.5z
			 M1384.5,570.2h0.7c0.2,4.3,1.8,8,4.9,11.1c3.1,3.1,6.8,4.6,11.1,4.6c2,0,3.1,0,3.2,0v2.5h-20V570.2z M1488.1,431.9h-0.7
			c0-4.3-1.6-8-4.7-11.1c-3.2-3.1-6.9-4.6-11.2-4.6c-2,0-3.1,0-3.2,0v-2.5h20V431.9z M1488.1,570.2v18.2h-20v-2.5c0.2,0,1.2,0,3.2,0
			c4.3,0,8.1-1.5,11.2-4.6c3.2-3.1,4.7-6.8,4.7-11.1H1488.1z M1503.6,413.7v174.8h-16.2V413.7H1503.6z M1502.9,431.9v-18.2h20v2.5
			h-3.2c-4.3,0-8,1.5-11.1,4.6c-3.1,3.1-4.7,6.8-4.9,11.1H1502.9z M1502.9,570.2h0.7c0.2,4.3,1.8,8,4.9,11.1
			c3.1,3.1,6.8,4.6,11.1,4.6h3.2v2.5h-20V570.2z"/>
		<path d="M1572.8,431.9h-0.7c0-4.3-1.6-8-4.7-11.1c-3.2-3.1-6.9-4.6-11.2-4.6h-3l-0.3-2.5h20V431.9z M1572.8,570.2v18.2h-20v-2.5
			h3.2c4.3,0,8-1.5,11.1-4.6c3.1-3.1,4.7-6.8,4.9-11.1H1572.8z M1588.2,413.7v174.8H1572V413.7H1588.2z M1655.6,413.7v7.7h-68.2
			v-7.7H1655.6z M1644.9,498.5v7.5h-57.4v-7.5H1644.9z M1655.6,580.7v7.7h-68.2v-7.7H1655.6z M1670.9,548l-14.5,40.4H1615l9-7.7
			c8.8,0,16-1.4,21.6-4.1c5.6-2.7,10.1-6.6,13.6-11.6c3.5-5,6.6-10.6,9.2-17H1670.9z M1655.6,409.2v7.2l-30.5-2.7
			c3.7,0,7.5-0.2,11.6-0.7c4.1-0.5,7.9-1.1,11.4-1.7C1651.7,410.5,1654.1,409.8,1655.6,409.2z M1644.9,482.6V499h-14.5v-0.5
			c3.3-0.2,6.2-1.5,8.5-3.9c2.3-2.4,3.5-5.3,3.5-8.6v-3.5H1644.9z M1644.9,505.5V522h-2.5v-3.7c0-3.3-1.2-6.2-3.5-8.6
			c-2.3-2.4-5.2-3.6-8.5-3.6v-0.5H1644.9z M1655.6,420.7v20h-2.5v-4.5c0-4-1.4-7.4-4.2-10.4c-2.8-2.9-6.3-4.5-10.5-4.6v-0.5H1655.6z
			"/>
		<path d="M1744.5,410.2c2.7,0,5.5,0.2,8.6,0.5c3.1,0.3,6.1,0.8,9,1.4c2.9,0.6,5.6,1.2,8,1.7c2.4,0.6,4.3,1.2,5.6,1.9v27.7h-2.2
			c0-8-2.7-14.3-8.2-18.9c-5.5-4.6-12.2-6.9-20-6.9c-9.2,0-16.6,2.9-22.2,8.6c-5.7,5.7-8.5,12.4-8.5,20.1c0,3.2,0.7,6.9,2.1,11.1
			c1.4,4.2,4,8.2,7.9,11.9l49.2,45.4c5,4.7,8.3,9.7,10,15c1.7,5.3,2.5,10.5,2.5,15.5c0,13.8-4.2,25.1-12.6,33.7
			c-8.4,8.7-19.8,13-34.1,13c-4,0-8.7-0.4-14.1-1.2c-5.4-0.8-10.7-2.3-15.7-4.4c-5.1-2.1-9.3-4.8-12.6-8.1c-0.5-2.7-0.7-6-0.7-10
			c0-4,0.3-8.2,1-12.6c0.7-4.4,1.6-8.4,2.7-12.1h2.2c-0.8,8.5,0.2,15.9,3.2,22.2c3,6.3,7.4,11.1,13.1,14.4
			c5.7,3.2,12.3,4.7,19.6,4.4c9.2-0.5,17-3.7,23.6-9.6c6.6-5.9,9.9-13.9,9.9-23.8c0-4.8-0.8-9.2-2.5-13.1c-1.7-3.9-4.1-7.3-7.2-10.1
			l-47.9-44.4c-5-4.7-8.5-9.8-10.5-15.4c-2-5.6-3-10.8-3-15.6c0-7,1.7-13.7,5-20.2c3.3-6.5,8.3-11.8,14.9-15.9
			C1727,412.2,1735,410.2,1744.5,410.2z M1775.7,412.7v5.2h-19v-5.2H1775.7z"/>
	</g>
	<rect x="62.2" y="257.4" width="1797.6" height="11.4"/>
	<rect x="62.2" y="715.1" width="1797.6" height="6.2"/>
</g>
</svg>
