<?xml version="1.0" encoding="utf-8"?>
<!-- Generator: Adobe Illustrator 23.0.5, SVG Export Plug-In . SVG Version: 6.00 Build 0)  -->
<svg version="1.1" id="Capa_1" xmlns="http://www.w3.org/2000/svg" xmlns:xlink="http://www.w3.org/1999/xlink" x="0px" y="0px"
	 viewBox="0 0 1920 1080" style="enable-background:new 0 0 1920 1080;" xml:space="preserve">
<style type="text/css">
	.st0{fill:none;stroke:#E0BE41;stroke-width:4;stroke-miterlimit:10;}
	.st1{fill:#A65631;}
	.st2{fill:none;stroke:#E0BE41;stroke-width:13.2734;stroke-miterlimit:10;}
	.st3{fill:#F382A0;}
	.st4{fill:#FEFFFD;}
	.st5{fill:#FACCD7;}
</style>
<g>
	<g>
		<g>
			<path class="st1" d="M387.8,876.6h-91.3v-8.1h12.2V742.4h-12.2v-8.1h87.2c3,0,5.2,0.1,6.6,0.3c1.4,0.2,2.7,0.9,4,2.2
				c1.2,1.3,1.8,3.3,1.8,6l-5.5,34.2h-7.9l-4.1-20.1c-1.2-6.1-3.5-10-6.8-11.8c-3.3-1.8-9.5-2.6-18.4-2.6h-14.2v69.5H386v9.1h-46.8
				v47.4h18.3c8.8,0,14.9-0.9,18.2-2.6c3.3-1.8,5.7-5.7,7-11.8l4.1-18.1h7.9l5.5,32.1c0,2.7-0.6,4.7-1.8,6c-1.2,1.3-2.5,2-4,2.2
				C393,876.5,390.8,876.6,387.8,876.6z"/>
			<path class="st1" d="M477.7,879.6c-16.1,0-29.2-5.2-39.1-15.6s-14.9-23.1-14.9-38.3c0-15.2,5-28,14.9-38.3
				c10-10.4,22.9-15.6,38.9-15.6c8.9,0,17.7,2.6,26.2,7.7c8.5,5.2,12.8,12.1,12.8,20.9c0,4.5-1.6,8.3-4.8,11.5
				c-3.2,3.2-7,4.8-11.5,4.8c-4.5,0-8.3-1.6-11.5-4.8c-3.2-3.2-4.8-6.8-4.8-10.9c0-4.1,1.1-7.5,3.3-10.4c2.2-2.8,5-4.8,8.5-5.9
				c-3.8-1.6-8.1-2.4-13-2.4c-9.1,0-16,4-20.6,12.1c-4.7,8.1-7,18.3-7,30.7c0,12.4,2.3,22.5,7,30.2c4.7,7.7,11.6,11.6,20.6,11.6
				c12.2,0,22.6-5.1,31.1-15.2l5.7,3.7c-4.5,7.3-10.3,13.2-17.6,17.6C494.7,877.4,486.6,879.6,477.7,879.6z"/>
			<path class="st1" d="M552.8,864.1c-10-10.4-14.9-23.1-14.9-38.3c0-15.2,5-28,14.9-38.3c10-10.4,22.9-15.6,38.9-15.6
				c16,0,29,5.2,38.9,15.6c10,10.4,14.9,23.1,14.9,38.3c0,15.2-5,28-14.9,38.3s-22.9,15.6-38.9,15.6
				C575.7,879.6,562.7,874.5,552.8,864.1z M575,793.1c-3.8,8.5-5.7,19.3-5.7,32.6c0,13.3,1.9,24.2,5.7,32.6
				c3.8,8.5,9.4,12.7,16.9,12.7c7.5,0,13.1-4.2,16.9-12.7c3.8-8.5,5.7-19.3,5.7-32.6c0-13.3-1.9-24.2-5.7-32.6
				c-3.8-8.5-9.4-12.7-16.9-12.7C584.5,780.4,578.8,784.7,575,793.1z"/>
			<path class="st1" d="M791,742.4h-14.2v69.5h42.7v9.1h-42.7v47.4h22.4v8.1H734v-8.1h12.2V742.4H734v-8.1h87.2c3,0,5.2,0.1,6.6,0.3
				c1.4,0.2,2.7,0.9,4,2.2c1.2,1.3,1.8,3.3,1.8,6l-5.5,34.2h-7.9l-4.1-20.1c-1.2-6.1-3.5-10-6.8-11.8
				C806,743.3,799.9,742.4,791,742.4z"/>
			<path class="st1" d="M915.6,771.9c4.1,0,6.1,3.9,6.1,11.6V854c0,3.7,0.9,6.5,2.6,8.6c1.8,2.1,4.5,3.2,8.1,3.2s7.9-2,12.6-5.9
				l3.7,4.9c-10.8,9.9-21.7,14.8-32.5,14.8c-16.7,0-25-10-25-29.9v-57.1c-6.4,2.6-14.1,4.3-23.2,5.3c-1.1,12.5-4.7,24.9-10.8,37.4
				l-8.3-2.4c3.8-9.6,5.8-21.1,6.1-34.4c-5.2,0-9.3-1.5-12.5-4.5c-3.2-3-4.8-6.7-4.8-11.1c0-4.4,1.5-8.1,4.6-11.2
				c3-3,6.8-4.6,11.2-4.6c4.4,0,8.1,1.6,11.1,4.7c3,3.1,4.5,7.1,4.5,12h3.9c10.7,0,22.1-3,34.2-8.9
				C911,772.9,913.8,771.9,915.6,771.9z"/>
			<path class="st1" d="M983.7,771.9c12.7,0,19.1,5.5,19.1,16.5V854c0,3.7,0.9,6.5,2.6,8.6c1.8,2.1,4.5,3.2,8.1,3.2s7.9-2,12.6-5.9
				l3.7,4.9c-10.8,9.9-21.7,14.8-32.5,14.8c-16.7,0-25-10-25-29.9v-68.1c-7.5,1.9-13.1,5.2-17.1,10l-5.5-6.3
				c3.9-4.1,8.9-7.3,14.9-9.8C970.7,773.1,977,771.9,983.7,771.9z M976.1,751.9c-3.2-3.2-4.8-7-4.8-11.5c0-4.5,1.6-8.3,4.8-11.5
				c3.2-3.2,7-4.8,11.5-4.8c4.5,0,8.3,1.6,11.5,4.8c3.2,3.2,4.8,7,4.8,11.5c0,4.5-1.6,8.3-4.8,11.5c-3.2,3.2-7,4.8-11.5,4.8
				C983.1,756.6,979.2,755,976.1,751.9z"/>
			<path class="st1" d="M1101.9,819.6c4.8-5.9,7.2-11.9,7.2-17.9c0-6-1.3-10.7-4-13.9c-2.6-3.3-6.6-4.9-12-4.9
				c-5.4,0-10.5,3.8-15.4,11.4c-4.9,7.6-7.3,17.8-7.3,30.5c0,12.7,2.3,23,6.9,30.7c4.6,7.7,11.2,11.6,19.7,11.6
				c13,0,24.1-5.1,33.1-15.2l5.7,3.7c-4.6,7.3-10.7,13.2-18.3,17.6c-7.6,4.4-16.1,6.6-25.6,6.6c-16.1,0-29-5.3-38.6-16
				c-9.6-10.6-14.4-23.5-14.4-38.5s5.1-27.7,15.4-37.9c10.2-10.2,24.4-15.3,42.6-15.3c11.9,0,21.3,2.8,28.1,8.3
				c6.8,5.6,10.2,12.6,10.2,21.1s-3.8,16.4-11.3,23.7c-7.5,7.3-17.5,10.9-29.8,10.9c-4.2,0-8.3-0.5-12.2-1.4l-0.4-4.9
				C1090.3,828.8,1097.1,825.5,1101.9,819.6z"/>
			<path class="st1" d="M1172.4,774.9c11.1,0,21.1,3.4,30.1,10.2c5.2-4.9,10.4-8.3,15.9-10.3c5.4-2,12.4-2.9,20.8-2.9
				c8.5,0,15.4,2.7,20.7,8c5.4,5.4,8,12.6,8,21.9V854c0,3.7,0.9,6.5,2.6,8.6c1.8,2.1,4.5,3.2,8.1,3.2c3.7,0,7.9-2,12.6-5.9l3.7,4.9
				c-10.8,9.9-21.7,14.8-32.5,14.8c-16.7,0-25-10-25-29.9v-52.2c0-4.2-1.3-7.5-3.9-9.8c-2.6-2.3-6.1-3.5-10.7-3.5
				c-4.5,0-9,1.8-13.4,5.5c-4.4,3.7-6.6,8.4-6.6,14.2v72.6h-30.5v-93.5c-6.1,0-11.5,1-16.3,3l-2.8-7.5
				C1159.1,776.2,1165.4,774.9,1172.4,774.9z"/>
			<path class="st1" d="M1412.2,733.5V854c0,3.7,0.9,6.5,2.6,8.6c1.8,2.1,4.3,3.2,7.6,3.2c3.3,0,7.4-2,12.1-5.9l4.7,4.9
				c-10.8,9.9-21.7,14.8-32.5,14.8c-12.9,0-20.8-6-23.8-18.1c-7,12.1-17.4,18.1-31.1,18.1c-15.6,0-27.4-5-35.6-15.1
				c-8.1-10.1-12.2-23-12.2-38.6c0-15.7,4.4-28.6,13.1-38.7c8.7-10.2,21-15.2,36.7-15.2c12.1,0,21.3,4.8,27.9,14.4v-55.5
				c-7.5,1.9-13.1,5.2-17.1,10l-5.5-6.3c3.9-4.1,8.9-7.3,14.9-9.8c6-2.4,12-3.7,17.9-3.7c5.9,0,10.7,1.2,14.5,3.6
				C1410.4,727,1412.2,729.9,1412.2,733.5z M1341.3,794.9c-3.8,7.6-5.7,17.9-5.7,30.9s1.9,23.3,5.7,30.9c3.8,7.6,9.6,11.4,17.4,11.4
				c7.8,0,13.8-3.8,17.9-11.5c4.1-7.7,6.2-17.9,6.2-30.8c0-12.9-2.1-23.1-6.2-30.8c-4.1-7.7-10.1-11.5-17.9-11.5
				C1350.9,783.5,1345.1,787.3,1341.3,794.9z"/>
			<path class="st1" d="M1450.2,724.7c6-2.4,12-3.7,17.9-3.7c5.9,0,10.7,1.2,14.5,3.6c3.8,2.4,5.7,5.3,5.7,8.8V854
				c0,3.7,0.9,6.5,2.6,8.6c1.8,2.1,4.5,3.2,8.1,3.2s7.9-2,12.6-5.9l3.7,4.9c-10.8,9.9-21.7,14.8-32.5,14.8c-16.7,0-25-10-25-29.9
				V730.8c-7.5,1.9-13.1,5.2-17.1,10l-5.5-6.3C1439.2,730.4,1444.1,727.2,1450.2,724.7z"/>
			<path class="st1" d="M1528.8,775.5c6-2.4,12-3.7,17.9-3.7c5.9,0,10.7,1.2,14.5,3.6c3.8,2.4,5.7,5.3,5.7,8.8v61.6
				c0,4.3,1.4,7.6,4.1,9.9c2.7,2.2,6.1,3.4,10.2,3.4c8.7,0,16.1-3.7,22.3-11.2c6.2-7.5,9.3-17,9.3-28.7c0-6.5-1.3-13.3-3.9-20.5
				c-2.4,1.6-5.6,2.4-9.4,2.4c-3.8,0-7.2-1.5-10.3-4.6c-3-3-4.6-6.7-4.6-11.1c0-4.3,1.5-8,4.6-11.1c3.1-3,6.9-4.6,11.5-4.6
				c4.6,0,8.6,1.7,11.9,5.2c3.3,3.5,5.7,8,7.2,13.7c2.4,9.9,3.7,20.8,3.7,32.8c0,12-1.4,24-4.2,36.1c-2.8,12.1-6.4,22.4-11,31.1
				c-4.5,8.7-9.7,16.2-15.3,22.6c-11.7,12.7-23.5,19.1-35.6,19.1c-3.3,0-5.9-0.7-8-2.1c-2.1-1.4-4.5-4-7.2-7.8l-10.6-14.6l5.3-5.5
				c6.5,1.1,12.2,1.6,17.1,1.6c15.2,0,27.6-4.8,37.2-14.4c9.6-9.6,17.2-25.3,22.8-47c-8.4,23.3-23.9,35-46.4,35
				c-8.7,0-16-2.9-22.1-8.8c-6-5.9-9-14.3-9-25.1v-60c-7.5,1.9-13.1,5.2-17.1,10l-5.5-6.3C1517.8,781.2,1522.8,778,1528.8,775.5z"/>
		</g>
	</g>
	<g>
		<g>
			<path class="st2" d="M686.8,612.6c0,0-85.5-345.1,271.9-357.4c0,0,340.2-21.6,275.3,357.4c0,0-225.6,3.3-269.9-182
				C964.1,430.7,930.6,599.8,686.8,612.6z"/>
			<polyline class="st2" points="954.7,255 964.1,289.2 972.4,255 			"/>
			<path class="st2" d="M823,583.3c83.5,75.8,184.5,79.5,272.9,0"/>
			<path class="st2" d="M874.5,554.7c0,0,77.6,62.2,171.3,0"/>
			<path class="st2" d="M1005.4,516.3c0,0-58,12.8-88,0"/>
			<path class="st2" d="M864,268.3c19-101.1,160.6-118.8,193.5-1.4"/>
			<path class="st2" d="M880.6,149.5c0,0,48.4,11.4,58.9,38.5l21.6,11.4l21.6-11.4c10.5-27.1,58.9-38.5,58.9-38.5"/>
		</g>
	</g>
</g>
</svg>
