<?xml version="1.0" encoding="utf-8"?>
<!-- Generator: Adobe Illustrator 23.0.5, SVG Export Plug-In . SVG Version: 6.00 Build 0)  -->
<svg version="1.1" id="Capa_1" xmlns="http://www.w3.org/2000/svg" xmlns:xlink="http://www.w3.org/1999/xlink" x="0px" y="0px"
	 viewBox="0 0 1920 1080" style="enable-background:new 0 0 1920 1080;" xml:space="preserve">
<style type="text/css">
	.st0{fill:#F5FF69;}
</style>
<g>
	<rect x="125.7" y="354" class="st0" width="1125.4" height="372"/>
	<g>
		<path d="M165.5,383.8l61.2,218.5l18.4,70h0.6l78.6-288.5h20.9v312.8h-13.1V552.1c0-46.8,0.7-96.5,2.1-149H333
			c-15.1,51.9-24.5,84.5-28,97.6l-52.7,196.1h-13.1l-54.1-196.1c-2.6-9.7-12.1-42.2-28.3-97.6h-0.9c1.4,66.3,2.1,116,2.1,149v144.6
			h-13.4V383.8H165.5z"/>
		<path d="M378.5,696.7l83.3-312.8h13.1l83.6,312.8h-14.8l-29.2-111.1h-92.3l-29.1,111.1H378.5z M509.5,566.8l-7.8-30.2
			c-17-64.7-27.9-107.5-32.7-128.4h-0.6c-4.2,17.8-11,44.2-20.6,79.3c-2.9,10.8-9.9,37.2-21,79.3H509.5z"/>
		<path d="M636.1,383.8c12.7,0,22.6,0.8,29.7,2.3c33,9.8,49.5,36.7,49.5,80.5c0,25.6-5.4,46.6-16.3,63.2
			c-10.9,16.5-25.2,25.5-42.9,26.9v0.9l71.1,139h-16.4l-71.1-137.6h-34.7v137.6h-13.4V383.8H636.1z M701.3,466.2
			c0-23.4-5.8-39.9-17.4-49.4c-11.6-9.5-28-14.3-49.3-14.3h-29.7v137.8h30.3c22.1,0,38.7-5.8,49.6-17.3
			C695.8,511.5,701.3,492.6,701.3,466.2z"/>
		<path d="M906.6,696.7h-18.4L779.6,541.8h-0.3v154.9h-13.4V383.8h13.4v155.6h0.3l102.9-155.6h16.3l-102,156.5L906.6,696.7z"/>
		<path d="M941.1,383.8h116v18.7H954.5V527h93.9v18.7h-93.9v132.2h108.6v18.7h-122V383.8z"/>
		<path d="M1158.9,403h-70.2v-19.2h154.1V403h-70.5v293.6h-13.4V403z"/>
		<path d="M1379.4,612.7c4.5-24.6,10-51.1,16.6-79.3l35.2-149.7h52.4v313h-37.3V538c0-23.2,0.6-50.2,1.8-81h-1.4
			c-1.7,8.9-3.8,18.9-6.1,29.9c-2.3,11.1-4.8,22-7.3,32.8l-42.2,176.9H1367l-42.2-176.9c-2.5-10.8-5-21.7-7.3-32.8
			c-2.3-11.1-4.4-21.1-6.1-29.9h-1.4c1.2,28.9,1.8,55.8,1.8,80.7v158.9h-37.3v-313h52.1l35.2,149c5.9,24.8,11.4,51.5,16.6,80H1379.4
			z"/>
		<path d="M1532.2,696.7v-313h37.3v313H1532.2z"/>
		<path d="M1734.9,616.9h-76.7l-20,79.8h-39.7l80.9-313h34.1l80.9,313h-39.4L1734.9,616.9z M1696.2,459
			c-7.1,32.7-13.5,60.1-19.1,82.1l-7,27.9h52.7l-7-27.9c-5.5-22.2-11.9-49.6-19.1-82.1H1696.2z"/>
	</g>
</g>
</svg>
